  0
SECTION
  2
HEADER
  0
ENDSEC
  0
SECTION
  2
TABLES
  0
TABLE
  2
LAYER
 70
     1
  0
LAYER
  2
0
 70
     0
 62
   254
  6
CONTINUOUS
  0
ENDTAB
  0
ENDSEC
  0
SECTION
  2
BLOCKS
  0
ENDSEC
  0
SECTION
  2
ENTITIES
  0
POLYLINE
  8
0
 62
   151
 66
     1
 10
0
 20
0
 30
0
 70
    64
 71
     8
 72
     6
  0
VERTEX
  8
0
 10
-66.268235551372257
 20
40.960280511057277
 30
2.057985466950417
 70
   192
  0
VERTEX
  8
0
 10
-66.243820935679778
 20
40.951224817192539
 30
-0.167937006043337
 70
   192
  0
VERTEX
  8
0
 10
-64.549698900269888
 20
39.571507378034454
 30
2.082484845024884
 70
   192
  0
VERTEX
  8
0
 10
-64.52528428457741
 20
39.562451684169716
 30
-0.14343762796887
 70
   192
  0
VERTEX
  8
0
 10
-69.916051582110043
 20
36.445910470152832
 30
2.036340834664567
 70
   192
  0
VERTEX
  8
0
 10
-69.891636966417565
 20
36.436854776288094
 30
-0.189581638329187
 70
   192
  0
VERTEX
  8
0
 10
-68.197514931007674
 20
35.057137337130008
 30
2.060840212739034
 70
   192
  0
VERTEX
  8
0
 10
-68.173100315315196
 20
35.04808164326527
 30
-0.165082260254719
 70
   192
  0
VERTEX
  8
0
 62
   151
 10
0
 20
0
 30
0
 70
   128
 71
     1
 72
     2
 73
     4
 74
     3
  0
VERTEX
  8
0
 62
   151
 10
0
 20
0
 30
0
 70
   128
 71
     1
 72
     2
 73
     6
 74
     5
  0
VERTEX
  8
0
 62
   151
 10
0
 20
0
 30
0
 70
   128
 71
     2
 72
     4
 73
     8
 74
     6
  0
VERTEX
  8
0
 62
   151
 10
0
 20
0
 30
0
 70
   128
 71
     3
 72
     4
 73
     8
 74
     7
  0
VERTEX
  8
0
 62
   151
 10
0
 20
0
 30
0
 70
   128
 71
     3
 72
     1
 73
     5
 74
     7
  0
VERTEX
  8
0
 62
   151
 10
0
 20
0
 30
0
 70
   128
 71
     5
 72
     6
 73
     8
 74
     7
  0
SEQEND
  8
0
  0
POLYLINE
  8
0
 62
   151
 66
     1
 10
0
 20
0
 30
0
 70
    64
 71
     8
 72
     6
  0
VERTEX
  8
0
 10
-66.243063491917923
 20
41.344862044611865
 30
0.02442780835967
 70
   192
  0
VERTEX
  8
0
 10
-66.239661092452536
 20
41.343600051044071
 30
-0.285774798450641
 70
   192
  0
VERTEX
  8
0
 10
-64.278334017429216
 20
39.757137100789627
 30
0.052436899803063
 70
   192
  0
VERTEX
  8
0
 10
-64.27493161796383
 20
39.755875107221833
 30
-0.257765707007248
 70
   192
  0
VERTEX
  8
0
 10
-70.143992868229375
 20
36.517250520424668
 30
0.001281306120561
 70
   192
  0
VERTEX
  8
0
 10
-70.140590468763989
 20
36.515988526856873
 30
-0.308921300689751
 70
   192
  0
VERTEX
  8
0
 10
-68.179263393740669
 20
34.92952557660243
 30
0.029290397563954
 70
   192
  0
VERTEX
  8
0
 10
-68.175860994275283
 20
34.928263583034635
 30
-0.280912209246358
 70
   192
  0
VERTEX
  8
0
 62
   151
 10
0
 20
0
 30
0
 70
   128
 71
     1
 72
     2
 73
     4
 74
     3
  0
VERTEX
  8
0
 62
   151
 10
0
 20
0
 30
0
 70
   128
 71
     1
 72
     2
 73
     6
 74
     5
  0
VERTEX
  8
0
 62
   151
 10
0
 20
0
 30
0
 70
   128
 71
     2
 72
     4
 73
     8
 74
     6
  0
VERTEX
  8
0
 62
   151
 10
0
 20
0
 30
0
 70
   128
 71
     3
 72
     4
 73
     8
 74
     7
  0
VERTEX
  8
0
 62
   151
 10
0
 20
0
 30
0
 70
   128
 71
     3
 72
     1
 73
     5
 74
     7
  0
VERTEX
  8
0
 62
   151
 10
0
 20
0
 30
0
 70
   128
 71
     5
 72
     6
 73
     8
 74
     7
  0
SEQEND
  8
0
  0
ENDSEC
  0
EOF
