  0
SECTION
  2
HEADER
  0
ENDSEC
  0
SECTION
  2
TABLES
  0
TABLE
  2
LAYER
 70
     1
  0
LAYER
  2
0
 70
     0
 62
   254
  6
CONTINUOUS
  0
ENDTAB
  0
ENDSEC
  0
SECTION
  2
BLOCKS
  0
ENDSEC
  0
SECTION
  2
ENTITIES
  0
CIRCLE
  8
0
 62
     9
 10
-113.42209797486964
 20
103.57440238450761
 30
-5.665070539045233
 39
0.965634662322057
 40
0.304343796975096
210
0.002773684176849
220
0.00443009629165
230
0.999986340368174
  0
POLYLINE
  8
0
 62
   151
 66
     1
 10
0
 20
0
 30
0
 70
    64
 71
     8
 72
     6
  0
VERTEX
  8
0
 10
-113.46430218169759
 20
103.75333264808043
 30
-4.778795250199898
 70
   192
  0
VERTEX
  8
0
 10
-113.2507243226337
 20
103.60287732255495
 30
-4.780057781958971
 70
   192
  0
VERTEX
  8
0
 10
-113.61440750621192
 20
103.54026681954633
 30
-4.78060530637211
 70
   192
  0
VERTEX
  8
0
 10
-113.40082964714803
 20
103.38981149402085
 30
-4.781867838131183
 70
   192
  0
VERTEX
  8
0
 10
-113.46429747909728
 20
103.7541461603883
 30
-4.874945613881595
 70
   192
  0
VERTEX
  8
0
 10
-113.25071962003339
 20
103.60369083486282
 30
-4.876208145640668
 70
   192
  0
VERTEX
  8
0
 10
-113.61440280361161
 20
103.5410803318542
 30
-4.876755670053807
 70
   192
  0
VERTEX
  8
0
 10
-113.40082494454772
 20
103.39062500632872
 30
-4.87801820181288
 70
   192
  0
VERTEX
  8
0
 62
   151
 10
0
 20
0
 30
0
 70
   128
 71
     1
 72
     2
 73
     4
 74
     3
  0
VERTEX
  8
0
 62
   151
 10
0
 20
0
 30
0
 70
   128
 71
     1
 72
     2
 73
     6
 74
     5
  0
VERTEX
  8
0
 62
   151
 10
0
 20
0
 30
0
 70
   128
 71
     2
 72
     4
 73
     8
 74
     6
  0
VERTEX
  8
0
 62
   151
 10
0
 20
0
 30
0
 70
   128
 71
     3
 72
     4
 73
     8
 74
     7
  0
VERTEX
  8
0
 62
   151
 10
0
 20
0
 30
0
 70
   128
 71
     3
 72
     1
 73
     5
 74
     7
  0
VERTEX
  8
0
 62
   151
 10
0
 20
0
 30
0
 70
   128
 71
     5
 72
     6
 73
     8
 74
     7
  0
SEQEND
  8
0
  0
POLYLINE
  8
0
 62
   151
 66
     1
 10
0
 20
0
 30
0
 70
    64
 71
     8
 72
     6
  0
VERTEX
  8
0
 10
-113.44423719511013
 20
103.65725802949841
 30
-4.824753406904137
 70
   192
  0
VERTEX
  8
0
 10
-113.51298659620659
 20
103.55865890395445
 30
-4.825835465298232
 70
   192
  0
VERTEX
  8
0
 10
-113.35181009166149
 20
103.59280307871326
 30
-4.823927409689453
 70
   192
  0
VERTEX
  8
0
 10
-113.42055949275795
 20
103.4942039531693
 30
-4.825009468083549
 70
   192
  0
VERTEX
  8
0
 10
-113.54563966833179
 20
103.62826675815501
 30
4.25966695357813
 70
   192
  0
VERTEX
  8
0
 10
-113.61438906942824
 20
103.52966763261105
 30
4.258584895184034
 70
   192
  0
VERTEX
  8
0
 10
-113.45321256488315
 20
103.56381180736986
 30
4.260492950792813
 70
   192
  0
VERTEX
  8
0
 10
-113.5219619659796
 20
103.4652126818259
 30
4.259410892398718
 70
   192
  0
VERTEX
  8
0
 62
   151
 10
0
 20
0
 30
0
 70
   128
 71
     1
 72
     2
 73
     4
 74
     3
  0
VERTEX
  8
0
 62
   151
 10
0
 20
0
 30
0
 70
   128
 71
     1
 72
     2
 73
     6
 74
     5
  0
VERTEX
  8
0
 62
   151
 10
0
 20
0
 30
0
 70
   128
 71
     2
 72
     4
 73
     8
 74
     6
  0
VERTEX
  8
0
 62
   151
 10
0
 20
0
 30
0
 70
   128
 71
     3
 72
     4
 73
     8
 74
     7
  0
VERTEX
  8
0
 62
   151
 10
0
 20
0
 30
0
 70
   128
 71
     3
 72
     1
 73
     5
 74
     7
  0
VERTEX
  8
0
 62
   151
 10
0
 20
0
 30
0
 70
   128
 71
     5
 72
     6
 73
     8
 74
     7
  0
SEQEND
  8
0
  0
POLYLINE
  8
0
 62
   151
 66
     1
 10
0
 20
0
 30
0
 70
    64
 71
     8
 72
     6
  0
VERTEX
  8
0
 10
-113.19437881931215
 20
103.64219860494241
 30
4.048400716969015
 70
   192
  0
VERTEX
  8
0
 10
-112.83801480260367
 20
104.18151335875341
 30
4.050653748090975
 70
   192
  0
VERTEX
  8
0
 10
-113.56964079876271
 20
103.89025913230616
 30
4.024949673659954
 70
   192
  0
VERTEX
  8
0
 10
-113.21327678205422
 20
104.42957388611715
 30
4.027202704781914
 70
   192
  0
VERTEX
  8
0
 10
-113.20480184250889
 20
103.64812709515699
 30
4.277899620486296
 70
   192
  0
VERTEX
  8
0
 10
-112.8484378258004
 20
104.18744184896799
 30
4.280152651608256
 70
   192
  0
VERTEX
  8
0
 10
-113.58006382195944
 20
103.89618762252074
 30
4.254448577177235
 70
   192
  0
VERTEX
  8
0
 10
-113.22369980525096
 20
104.43550237633174
 30
4.256701608299195
 70
   192
  0
VERTEX
  8
0
 62
   151
 10
0
 20
0
 30
0
 70
   128
 71
     1
 72
     2
 73
     4
 74
     3
  0
VERTEX
  8
0
 62
   151
 10
0
 20
0
 30
0
 70
   128
 71
     1
 72
     2
 73
     6
 74
     5
  0
VERTEX
  8
0
 62
   151
 10
0
 20
0
 30
0
 70
   128
 71
     2
 72
     4
 73
     8
 74
     6
  0
VERTEX
  8
0
 62
   151
 10
0
 20
0
 30
0
 70
   128
 71
     3
 72
     4
 73
     8
 74
     7
  0
VERTEX
  8
0
 62
   151
 10
0
 20
0
 30
0
 70
   128
 71
     3
 72
     1
 73
     5
 74
     7
  0
VERTEX
  8
0
 62
   151
 10
0
 20
0
 30
0
 70
   128
 71
     5
 72
     6
 73
     8
 74
     7
  0
SEQEND
  8
0
  0
POLYLINE
  8
0
 62
   151
 66
     1
 10
0
 20
0
 30
0
 70
    64
 71
     8
 72
     6
  0
VERTEX
  8
0
 10
-113.60411226473515
 20
103.28019470108467
 30
4.102795867754496
 70
   192
  0
VERTEX
  8
0
 10
-113.48844904457577
 20
103.45523729287436
 30
4.103527122377486
 70
   192
  0
VERTEX
  8
0
 10
-113.73909100418949
 20
103.36939646672209
 30
4.100016273632861
 70
   192
  0
VERTEX
  8
0
 10
-113.62342778403011
 20
103.54443905851178
 30
4.10074752825585
 70
   192
  0
VERTEX
  8
0
 10
-113.60583146144168
 20
103.28088886785922
 30
4.208558037838843
 70
   192
  0
VERTEX
  8
0
 10
-113.4901682412823
 20
103.45593145964891
 30
4.209289292461833
 70
   192
  0
VERTEX
  8
0
 10
-113.74081020089602
 20
103.37009063349664
 30
4.205778443717207
 70
   192
  0
VERTEX
  8
0
 10
-113.62514698073664
 20
103.54513322528634
 30
4.206509698340197
 70
   192
  0
VERTEX
  8
0
 62
   151
 10
0
 20
0
 30
0
 70
   128
 71
     1
 72
     2
 73
     4
 74
     3
  0
VERTEX
  8
0
 62
   151
 10
0
 20
0
 30
0
 70
   128
 71
     1
 72
     2
 73
     6
 74
     5
  0
VERTEX
  8
0
 62
   151
 10
0
 20
0
 30
0
 70
   128
 71
     2
 72
     4
 73
     8
 74
     6
  0
VERTEX
  8
0
 62
   151
 10
0
 20
0
 30
0
 70
   128
 71
     3
 72
     4
 73
     8
 74
     7
  0
VERTEX
  8
0
 62
   151
 10
0
 20
0
 30
0
 70
   128
 71
     3
 72
     1
 73
     5
 74
     7
  0
VERTEX
  8
0
 62
   151
 10
0
 20
0
 30
0
 70
   128
 71
     5
 72
     6
 73
     8
 74
     7
  0
SEQEND
  8
0
  0
POLYLINE
  8
0
 62
   151
 66
     1
 10
0
 20
0
 30
0
 70
    64
 71
     8
 72
     6
  0
VERTEX
  8
0
 10
-113.83392250646477
 20
102.6622688273616
 30
4.040697948542605
 70
   192
  0
VERTEX
  8
0
 10
-113.47755848975629
 20
103.2015835811726
 30
4.042950979664565
 70
   192
  0
VERTEX
  8
0
 10
-114.20918448591533
 20
102.91032935472535
 30
4.017246905233544
 70
   192
  0
VERTEX
  8
0
 10
-113.85282046920685
 20
103.44964410853635
 30
4.019499936355504
 70
   192
  0
VERTEX
  8
0
 10
-113.84434552966151
 20
102.66819731757619
 30
4.270196852059886
 70
   192
  0
VERTEX
  8
0
 10
-113.48798151295303
 20
103.20751207138719
 30
4.272449883181846
 70
   192
  0
VERTEX
  8
0
 10
-114.21960750911207
 20
102.91625784493993
 30
4.246745808750825
 70
   192
  0
VERTEX
  8
0
 10
-113.86324349240358
 20
103.45557259875093
 30
4.248998839872785
 70
   192
  0
VERTEX
  8
0
 62
   151
 10
0
 20
0
 30
0
 70
   128
 71
     1
 72
     2
 73
     4
 74
     3
  0
VERTEX
  8
0
 62
   151
 10
0
 20
0
 30
0
 70
   128
 71
     1
 72
     2
 73
     6
 74
     5
  0
VERTEX
  8
0
 62
   151
 10
0
 20
0
 30
0
 70
   128
 71
     2
 72
     4
 73
     8
 74
     6
  0
VERTEX
  8
0
 62
   151
 10
0
 20
0
 30
0
 70
   128
 71
     3
 72
     4
 73
     8
 74
     7
  0
VERTEX
  8
0
 62
   151
 10
0
 20
0
 30
0
 70
   128
 71
     3
 72
     1
 73
     5
 74
     7
  0
VERTEX
  8
0
 62
   151
 10
0
 20
0
 30
0
 70
   128
 71
     5
 72
     6
 73
     8
 74
     7
  0
SEQEND
  8
0
  0
POLYLINE
  8
0
 62
   151
 66
     1
 10
0
 20
0
 30
0
 70
    64
 71
     8
 72
     6
  0
VERTEX
  8
0
 10
-113.42703630634229
 20
103.54656631888565
 30
4.11239299302662
 70
   192
  0
VERTEX
  8
0
 10
-113.31137308618291
 20
103.72160891067534
 30
4.113124247649609
 70
   192
  0
VERTEX
  8
0
 10
-113.56201504579663
 20
103.63576808452308
 30
4.109613398904984
 70
   192
  0
VERTEX
  8
0
 10
-113.44635182563725
 20
103.81081067631277
 30
4.110344653527974
 70
   192
  0
VERTEX
  8
0
 10
-113.42875550304882
 20
103.5472604856602
 30
4.218155163110967
 70
   192
  0
VERTEX
  8
0
 10
-113.31309228288944
 20
103.72230307744989
 30
4.218886417733956
 70
   192
  0
VERTEX
  8
0
 10
-113.56373424250316
 20
103.63646225129763
 30
4.215375568989331
 70
   192
  0
VERTEX
  8
0
 10
-113.44807102234378
 20
103.81150484308732
 30
4.216106823612321
 70
   192
  0
VERTEX
  8
0
 62
   151
 10
0
 20
0
 30
0
 70
   128
 71
     1
 72
     2
 73
     4
 74
     3
  0
VERTEX
  8
0
 62
   151
 10
0
 20
0
 30
0
 70
   128
 71
     1
 72
     2
 73
     6
 74
     5
  0
VERTEX
  8
0
 62
   151
 10
0
 20
0
 30
0
 70
   128
 71
     2
 72
     4
 73
     8
 74
     6
  0
VERTEX
  8
0
 62
   151
 10
0
 20
0
 30
0
 70
   128
 71
     3
 72
     4
 73
     8
 74
     7
  0
VERTEX
  8
0
 62
   151
 10
0
 20
0
 30
0
 70
   128
 71
     3
 72
     1
 73
     5
 74
     7
  0
VERTEX
  8
0
 62
   151
 10
0
 20
0
 30
0
 70
   128
 71
     5
 72
     6
 73
     8
 74
     7
  0
SEQEND
  8
0
  0
CIRCLE
  8
0
 62
     9
 10
-85.222159855841952
 20
86.654829200057208
 30
-5.871213314970726
 39
0.988621408051034
 40
0.305957096719444
210
-0.000019576622672
220
0.000016975057015
230
0.999999999664302
  0
POLYLINE
  8
0
 62
   151
 66
     1
 10
0
 20
0
 30
0
 70
    64
 71
     8
 72
     6
  0
VERTEX
  8
0
 10
-85.18744697329555
 20
86.448420356591924
 30
-4.886912274562746
 70
   192
  0
VERTEX
  8
0
 10
-85.029823108643228
 20
86.69310003633754
 30
-4.88715032979727
 70
   192
  0
VERTEX
  8
0
 10
-85.435315668222245
 20
86.608095057529397
 30
-4.890554000053922
 70
   192
  0
VERTEX
  8
0
 10
-85.277691803569923
 20
86.852774737275013
 30
-4.890792055288446
 70
   192
  0
VERTEX
  8
0
 10
-85.188345075040374
 20
86.449086821808606
 30
-4.796562537232186
 70
   192
  0
VERTEX
  8
0
 10
-85.030721210388052
 20
86.693766501554222
 30
-4.79680059246671
 70
   192
  0
VERTEX
  8
0
 10
-85.436213769967068
 20
86.608761522746079
 30
-4.800204262723362
 70
   192
  0
VERTEX
  8
0
 10
-85.278589905314746
 20
86.853441202491695
 30
-4.800442317957886
 70
   192
  0
VERTEX
  8
0
 62
   151
 10
0
 20
0
 30
0
 70
   128
 71
     1
 72
     2
 73
     4
 74
     3
  0
VERTEX
  8
0
 62
   151
 10
0
 20
0
 30
0
 70
   128
 71
     1
 72
     2
 73
     6
 74
     5
  0
VERTEX
  8
0
 62
   151
 10
0
 20
0
 30
0
 70
   128
 71
     2
 72
     4
 73
     8
 74
     6
  0
VERTEX
  8
0
 62
   151
 10
0
 20
0
 30
0
 70
   128
 71
     3
 72
     4
 73
     8
 74
     7
  0
VERTEX
  8
0
 62
   151
 10
0
 20
0
 30
0
 70
   128
 71
     3
 72
     1
 73
     5
 74
     7
  0
VERTEX
  8
0
 62
   151
 10
0
 20
0
 30
0
 70
   128
 71
     5
 72
     6
 73
     8
 74
     7
  0
SEQEND
  8
0
  0
POLYLINE
  8
0
 62
   151
 66
     1
 10
0
 20
0
 30
0
 70
    64
 71
     8
 72
     6
  0
VERTEX
  8
0
 10
-85.334070510849031
 20
86.627369539605226
 30
-4.890138128759547
 70
   192
  0
VERTEX
  8
0
 10
-85.217195573564894
 20
86.547329079839173
 30
-4.89002640244268
 70
   192
  0
VERTEX
  8
0
 10
-85.256629732794252
 20
86.740448216593208
 30
-4.890288339852934
 70
   192
  0
VERTEX
  8
0
 10
-85.139754795510115
 20
86.660407756827155
 30
-4.890176613536068
 70
   192
  0
VERTEX
  8
0
 10
-85.334357950861985
 20
86.639700957448127
 30
4.244745359962672
 70
   192
  0
VERTEX
  8
0
 10
-85.217483013577848
 20
86.559660497682074
 30
4.244857086279539
 70
   192
  0
VERTEX
  8
0
 10
-85.256917172807206
 20
86.752779634436109
 30
4.244595148869284
 70
   192
  0
VERTEX
  8
0
 10
-85.140042235523069
 20
86.672739174670056
 30
4.244706875186151
 70
   192
  0
VERTEX
  8
0
 62
   151
 10
0
 20
0
 30
0
 70
   128
 71
     1
 72
     2
 73
     4
 74
     3
  0
VERTEX
  8
0
 62
   151
 10
0
 20
0
 30
0
 70
   128
 71
     1
 72
     2
 73
     6
 74
     5
  0
VERTEX
  8
0
 62
   151
 10
0
 20
0
 30
0
 70
   128
 71
     2
 72
     4
 73
     8
 74
     6
  0
VERTEX
  8
0
 62
   151
 10
0
 20
0
 30
0
 70
   128
 71
     3
 72
     4
 73
     8
 74
     7
  0
VERTEX
  8
0
 62
   151
 10
0
 20
0
 30
0
 70
   128
 71
     3
 72
     1
 73
     5
 74
     7
  0
VERTEX
  8
0
 62
   151
 10
0
 20
0
 30
0
 70
   128
 71
     5
 72
     6
 73
     8
 74
     7
  0
SEQEND
  8
0
  0
POLYLINE
  8
0
 62
   151
 66
     1
 10
0
 20
0
 30
0
 70
    64
 71
     8
 72
     6
  0
VERTEX
  8
0
 10
-85.149775477185798
 20
86.675419565262644
 30
4.082545124534117
 70
   192
  0
VERTEX
  8
0
 10
-85.030341705529636
 20
86.853016605496293
 30
4.085636780102834
 70
   192
  0
VERTEX
  8
0
 10
-85.250362470242649
 20
86.743076172527566
 30
4.081856418394968
 70
   192
  0
VERTEX
  8
0
 10
-85.130928698586487
 20
86.920673212761216
 30
4.084948073963685
 70
   192
  0
VERTEX
  8
0
 10
-85.151116510211097
 20
86.674494243463755
 30
4.187504761097891
 70
   192
  0
VERTEX
  8
0
 10
-85.031682738554935
 20
86.852091283697405
 30
4.190596416666608
 70
   192
  0
VERTEX
  8
0
 10
-85.251703503267947
 20
86.742150850728677
 30
4.186816054958742
 70
   192
  0
VERTEX
  8
0
 10
-85.132269731611785
 20
86.919747890962327
 30
4.189907710527459
 70
   192
  0
VERTEX
  8
0
 62
   151
 10
0
 20
0
 30
0
 70
   128
 71
     1
 72
     2
 73
     4
 74
     3
  0
VERTEX
  8
0
 62
   151
 10
0
 20
0
 30
0
 70
   128
 71
     1
 72
     2
 73
     6
 74
     5
  0
VERTEX
  8
0
 62
   151
 10
0
 20
0
 30
0
 70
   128
 71
     2
 72
     4
 73
     8
 74
     6
  0
VERTEX
  8
0
 62
   151
 10
0
 20
0
 30
0
 70
   128
 71
     3
 72
     4
 73
     8
 74
     7
  0
VERTEX
  8
0
 62
   151
 10
0
 20
0
 30
0
 70
   128
 71
     3
 72
     1
 73
     5
 74
     7
  0
VERTEX
  8
0
 62
   151
 10
0
 20
0
 30
0
 70
   128
 71
     5
 72
     6
 73
     8
 74
     7
  0
SEQEND
  8
0
  0
POLYLINE
  8
0
 62
   151
 66
     1
 10
0
 20
0
 30
0
 70
    64
 71
     8
 72
     6
  0
VERTEX
  8
0
 10
-85.34850885284223
 20
86.388580292455728
 30
4.08125337353629
 70
   192
  0
VERTEX
  8
0
 10
-85.229075081186068
 20
86.566177332689378
 30
4.084345029105007
 70
   192
  0
VERTEX
  8
0
 10
-85.44909584589908
 20
86.456236899720651
 30
4.080564667397141
 70
   192
  0
VERTEX
  8
0
 10
-85.329662074242918
 20
86.6338339399543
 30
4.083656322965858
 70
   192
  0
VERTEX
  8
0
 10
-85.349849885867528
 20
86.38765497065684
 30
4.186213010100064
 70
   192
  0
VERTEX
  8
0
 10
-85.230416114211366
 20
86.565252010890489
 30
4.189304665668781
 70
   192
  0
VERTEX
  8
0
 10
-85.450436878924378
 20
86.455311577921762
 30
4.185524303960915
 70
   192
  0
VERTEX
  8
0
 10
-85.331003107268216
 20
86.632908618155412
 30
4.188615959529632
 70
   192
  0
VERTEX
  8
0
 62
   151
 10
0
 20
0
 30
0
 70
   128
 71
     1
 72
     2
 73
     4
 74
     3
  0
VERTEX
  8
0
 62
   151
 10
0
 20
0
 30
0
 70
   128
 71
     1
 72
     2
 73
     6
 74
     5
  0
VERTEX
  8
0
 62
   151
 10
0
 20
0
 30
0
 70
   128
 71
     2
 72
     4
 73
     8
 74
     6
  0
VERTEX
  8
0
 62
   151
 10
0
 20
0
 30
0
 70
   128
 71
     3
 72
     4
 73
     8
 74
     7
  0
VERTEX
  8
0
 62
   151
 10
0
 20
0
 30
0
 70
   128
 71
     3
 72
     1
 73
     5
 74
     7
  0
VERTEX
  8
0
 62
   151
 10
0
 20
0
 30
0
 70
   128
 71
     5
 72
     6
 73
     8
 74
     7
  0
SEQEND
  8
0
  0
POLYLINE
  8
0
 62
   151
 66
     1
 10
0
 20
0
 30
0
 70
    64
 71
     8
 72
     6
  0
VERTEX
  8
0
 10
-84.899226682549894
 20
87.555108857096485
 30
3.983005937723064
 70
   192
  0
VERTEX
  8
0
 10
-85.269983708319373
 20
87.030292868317758
 30
3.974781656398114
 70
   192
  0
VERTEX
  8
0
 10
-84.518877906428273
 20
87.286441078266762
 30
3.981080542691004
 70
   192
  0
VERTEX
  8
0
 10
-84.889634932197751
 20
86.761625089488035
 30
3.972856261366054
 70
   192
  0
VERTEX
  8
0
 10
-84.900212935329165
 20
87.551948932446052
 30
4.229111226076779
 70
   192
  0
VERTEX
  8
0
 10
-85.270969961098643
 20
87.027132943667326
 30
4.220886944751829
 70
   192
  0
VERTEX
  8
0
 10
-84.519864159207543
 20
87.283281153616329
 30
4.227185831044719
 70
   192
  0
VERTEX
  8
0
 10
-84.890621184977022
 20
86.758465164837602
 30
4.218961549719769
 70
   192
  0
VERTEX
  8
0
 62
   151
 10
0
 20
0
 30
0
 70
   128
 71
     1
 72
     2
 73
     4
 74
     3
  0
VERTEX
  8
0
 62
   151
 10
0
 20
0
 30
0
 70
   128
 71
     1
 72
     2
 73
     6
 74
     5
  0
VERTEX
  8
0
 62
   151
 10
0
 20
0
 30
0
 70
   128
 71
     2
 72
     4
 73
     8
 74
     6
  0
VERTEX
  8
0
 62
   151
 10
0
 20
0
 30
0
 70
   128
 71
     3
 72
     4
 73
     8
 74
     7
  0
VERTEX
  8
0
 62
   151
 10
0
 20
0
 30
0
 70
   128
 71
     3
 72
     1
 73
     5
 74
     7
  0
VERTEX
  8
0
 62
   151
 10
0
 20
0
 30
0
 70
   128
 71
     5
 72
     6
 73
     8
 74
     7
  0
SEQEND
  8
0
  0
POLYLINE
  8
0
 62
   151
 66
     1
 10
0
 20
0
 30
0
 70
    64
 71
     8
 72
     6
  0
VERTEX
  8
0
 10
-85.589023635239457
 20
86.572780445998575
 30
3.972407299000361
 70
   192
  0
VERTEX
  8
0
 10
-85.959780661008935
 20
86.047964457219848
 30
3.964183017675411
 70
   192
  0
VERTEX
  8
0
 10
-85.208674859117835
 20
86.304112667168852
 30
3.970481903968301
 70
   192
  0
VERTEX
  8
0
 10
-85.579431884887313
 20
85.779296678390125
 30
3.96225762264335
 70
   192
  0
VERTEX
  8
0
 10
-85.590009888018727
 20
86.569620521348142
 30
4.218512587354075
 70
   192
  0
VERTEX
  8
0
 10
-85.960766913788206
 20
86.044804532569415
 30
4.210288306029125
 70
   192
  0
VERTEX
  8
0
 10
-85.209661111897105
 20
86.300952742518419
 30
4.216587192322015
 70
   192
  0
VERTEX
  8
0
 10
-85.580418137666584
 20
85.776136753739692
 30
4.208362910997065
 70
   192
  0
VERTEX
  8
0
 62
   151
 10
0
 20
0
 30
0
 70
   128
 71
     1
 72
     2
 73
     4
 74
     3
  0
VERTEX
  8
0
 62
   151
 10
0
 20
0
 30
0
 70
   128
 71
     1
 72
     2
 73
     6
 74
     5
  0
VERTEX
  8
0
 62
   151
 10
0
 20
0
 30
0
 70
   128
 71
     2
 72
     4
 73
     8
 74
     6
  0
VERTEX
  8
0
 62
   151
 10
0
 20
0
 30
0
 70
   128
 71
     3
 72
     4
 73
     8
 74
     7
  0
VERTEX
  8
0
 62
   151
 10
0
 20
0
 30
0
 70
   128
 71
     3
 72
     1
 73
     5
 74
     7
  0
VERTEX
  8
0
 62
   151
 10
0
 20
0
 30
0
 70
   128
 71
     5
 72
     6
 73
     8
 74
     7
  0
SEQEND
  8
0
  0
POLYLINE
  8
0
 62
   151
 66
     1
 10
0
 20
0
 30
0
 70
    64
 71
     8
 72
     6
  0
VERTEX
  8
0
 10
-71.570315289859295
 20
77.013391165394424
 30
-5.114481858235093
 70
   192
  0
VERTEX
  8
0
 10
-71.612508383302085
 20
77.062164326589155
 30
-5.114817931016715
 70
   192
  0
VERTEX
  8
0
 10
-71.610248623369884
 20
76.978841038205971
 30
-5.115100921658776
 70
   192
  0
VERTEX
  8
0
 10
-71.652441716812675
 20
77.027614199400702
 30
-5.115436994440398
 70
   192
  0
VERTEX
  8
0
 10
-71.599603345967196
 20
77.004493927533701
 30
-2.728667488260153
 70
   192
  0
VERTEX
  8
0
 10
-71.641796439409987
 20
77.053267088728433
 30
-2.729003561041775
 70
   192
  0
VERTEX
  8
0
 10
-71.639536679477786
 20
76.969943800345249
 30
-2.729286551683836
 70
   192
  0
VERTEX
  8
0
 10
-71.681729772920576
 20
77.01871696153998
 30
-2.729622624465458
 70
   192
  0
VERTEX
  8
0
 62
   151
 10
0
 20
0
 30
0
 70
   128
 71
     1
 72
     2
 73
     4
 74
     3
  0
VERTEX
  8
0
 62
   151
 10
0
 20
0
 30
0
 70
   128
 71
     1
 72
     2
 73
     6
 74
     5
  0
VERTEX
  8
0
 62
   151
 10
0
 20
0
 30
0
 70
   128
 71
     2
 72
     4
 73
     8
 74
     6
  0
VERTEX
  8
0
 62
   151
 10
0
 20
0
 30
0
 70
   128
 71
     3
 72
     4
 73
     8
 74
     7
  0
VERTEX
  8
0
 62
   151
 10
0
 20
0
 30
0
 70
   128
 71
     3
 72
     1
 73
     5
 74
     7
  0
VERTEX
  8
0
 62
   151
 10
0
 20
0
 30
0
 70
   128
 71
     5
 72
     6
 73
     8
 74
     7
  0
SEQEND
  8
0
  0
POLYLINE
  8
0
 62
   151
 66
     1
 10
0
 20
0
 30
0
 70
    64
 71
     8
 72
     6
  0
VERTEX
  8
0
 10
-70.998622101036219
 20
76.506348127162511
 30
-5.210231034467003
 70
   192
  0
VERTEX
  8
0
 10
-71.040815194479009
 20
76.555121288357242
 30
-5.210567107248624
 70
   192
  0
VERTEX
  8
0
 10
-71.038555434546808
 20
76.471797999974058
 30
-5.210850097890686
 70
   192
  0
VERTEX
  8
0
 10
-71.080748527989599
 20
76.520571161168789
 30
-5.211186170672307
 70
   192
  0
VERTEX
  8
0
 10
-71.029861012565775
 20
76.496858250969822
 30
-2.665499361083813
 70
   192
  0
VERTEX
  8
0
 10
-71.072054106008565
 20
76.545631412164553
 30
-2.665835433865435
 70
   192
  0
VERTEX
  8
0
 10
-71.069794346076364
 20
76.462308123781369
 30
-2.666118424507496
 70
   192
  0
VERTEX
  8
0
 10
-71.111987439519154
 20
76.5110812849761
 30
-2.666454497289117
 70
   192
  0
VERTEX
  8
0
 62
   151
 10
0
 20
0
 30
0
 70
   128
 71
     1
 72
     2
 73
     4
 74
     3
  0
VERTEX
  8
0
 62
   151
 10
0
 20
0
 30
0
 70
   128
 71
     1
 72
     2
 73
     6
 74
     5
  0
VERTEX
  8
0
 62
   151
 10
0
 20
0
 30
0
 70
   128
 71
     2
 72
     4
 73
     8
 74
     6
  0
VERTEX
  8
0
 62
   151
 10
0
 20
0
 30
0
 70
   128
 71
     3
 72
     4
 73
     8
 74
     7
  0
VERTEX
  8
0
 62
   151
 10
0
 20
0
 30
0
 70
   128
 71
     3
 72
     1
 73
     5
 74
     7
  0
VERTEX
  8
0
 62
   151
 10
0
 20
0
 30
0
 70
   128
 71
     5
 72
     6
 73
     8
 74
     7
  0
SEQEND
  8
0
  0
POLYLINE
  8
0
 62
   151
 66
     1
 10
0
 20
0
 30
0
 70
    64
 71
    11
 72
     9
  0
VERTEX
  8
0
 10
-70.98749675886468
 20
76.399691277847225
 30
-3.40048803697121
 70
   192
  0
VERTEX
  8
0
 10
-71.715842927859583
 20
77.031316721544201
 30
-3.737560170989155
 70
   192
  0
VERTEX
  8
0
 10
-70.982085282967844
 20
76.401398384675915
 30
-3.781008380751728
 70
   192
  0
VERTEX
  8
0
 10
-71.73282739059762
 20
77.032674872980053
 30
-2.945202353696941
 70
   192
  0
VERTEX
  8
0
 10
-71.014036740229884
 20
76.409643018350536
 30
-2.630926507811664
 70
   192
  0
VERTEX
  8
0
 10
-71.736332799361506
 20
77.03206398497575
 30
-2.728332001071094
 70
   192
  0
VERTEX
  8
0
 10
-71.7446365012391
 20
77.037337267503673
 30
-2.616801458697437
 70
   192
  0
VERTEX
  8
0
 10
-71.168638701604166
 20
76.541491294012005
 30
-2.56941362033379
 70
   192
  0
VERTEX
  8
0
 10
-71.64275821583108
 20
76.94921257506364
 30
-2.583101946215748
 70
   192
  0
VERTEX
  8
0
 10
-71.538284863398829
 20
76.858918184146816
 30
-2.553030568461536
 70
   192
  0
VERTEX
  8
0
 10
-71.368496025965968
 20
76.712032760691429
 30
-2.495779234271168
 70
   192
  0
VERTEX
  8
0
 10
0
 20
0
 30
0
 62
   151
 70
   128
 71
     1
 72
     2
 73
     3
  0
VERTEX
  8
0
 10
0
 20
0
 30
0
 62
   151
 70
   128
 71
     2
 72
     1
 73
     4
  0
VERTEX
  8
0
 10
0
 20
0
 30
0
 62
   151
 70
   128
 71
     4
 72
     1
 73
     5
  0
VERTEX
  8
0
 10
0
 20
0
 30
0
 62
   151
 70
   128
 71
     4
 72
     5
 73
     6
  0
VERTEX
  8
0
 10
0
 20
0
 30
0
 62
   151
 70
   128
 71
     6
 72
     5
 73
     7
  0
VERTEX
  8
0
 10
0
 20
0
 30
0
 62
   151
 70
   128
 71
     7
 72
     5
 73
     8
  0
VERTEX
  8
0
 10
0
 20
0
 30
0
 62
   151
 70
   128
 71
     7
 72
     8
 73
     9
  0
VERTEX
  8
0
 10
0
 20
0
 30
0
 62
   151
 70
   128
 71
     9
 72
     8
 73
    10
  0
VERTEX
  8
0
 10
0
 20
0
 30
0
 62
   151
 70
   128
 71
    10
 72
     8
 73
    11
  0
SEQEND
  8
0
  0
POLYLINE
  8
0
 62
   151
 66
     1
 10
0
 20
0
 30
0
 70
    64
 71
     8
 72
     6
  0
VERTEX
  8
0
 10
-69.451943339047261
 20
66.012670170445489
 30
-4.271105370058507
 70
   192
  0
VERTEX
  8
0
 10
-69.288027154063599
 20
65.747726182349709
 30
-4.268542290637633
 70
   192
  0
VERTEX
  8
0
 10
-69.716054146463989
 20
65.849312296779033
 30
-4.266677325972475
 70
   192
  0
VERTEX
  8
0
 10
-69.552137961480327
 20
65.584368308683253
 30
-4.264114246551602
 70
   192
  0
VERTEX
  8
0
 10
-69.452598649521164
 20
66.011451793266914
 30
-4.355139330957753
 70
   192
  0
VERTEX
  8
0
 10
-69.288682464537501
 20
65.746507805171134
 30
-4.352576251536879
 70
   192
  0
VERTEX
  8
0
 10
-69.716709456937892
 20
65.848093919600458
 30
-4.350711286871722
 70
   192
  0
VERTEX
  8
0
 10
-69.552793271954229
 20
65.583149931504678
 30
-4.348148207450848
 70
   192
  0
VERTEX
  8
0
 62
   151
 10
0
 20
0
 30
0
 70
   128
 71
     1
 72
     2
 73
     4
 74
     3
  0
VERTEX
  8
0
 62
   151
 10
0
 20
0
 30
0
 70
   128
 71
     1
 72
     2
 73
     6
 74
     5
  0
VERTEX
  8
0
 62
   151
 10
0
 20
0
 30
0
 70
   128
 71
     2
 72
     4
 73
     8
 74
     6
  0
VERTEX
  8
0
 62
   151
 10
0
 20
0
 30
0
 70
   128
 71
     3
 72
     4
 73
     8
 74
     7
  0
VERTEX
  8
0
 62
   151
 10
0
 20
0
 30
0
 70
   128
 71
     3
 72
     1
 73
     5
 74
     7
  0
VERTEX
  8
0
 62
   151
 10
0
 20
0
 30
0
 70
   128
 71
     5
 72
     6
 73
     8
 74
     7
  0
SEQEND
  8
0
  0
POLYLINE
  8
0
 62
   151
 66
     1
 10
0
 20
0
 30
0
 70
    64
 71
     8
 72
     6
  0
VERTEX
  8
0
 10
-69.519453182285304
 20
65.70478206498521
 30
-4.303613016378249
 70
   192
  0
VERTEX
  8
0
 10
-69.405239007947301
 20
65.769589536506857
 30
-4.303963866284245
 70
   192
  0
VERTEX
  8
0
 10
-69.583590570613154
 20
65.817813522189397
 30
-4.303943380582271
 70
   192
  0
VERTEX
  8
0
 10
-69.469376396275152
 20
65.882620993711043
 30
-4.304294230488266
 70
   192
  0
VERTEX
  8
0
 10
-69.511227385941169
 20
65.731936094948892
 30
3.389951995772895
 70
   192
  0
VERTEX
  8
0
 10
-69.397013211603166
 20
65.796743566470539
 30
3.3896011458669
 70
   192
  0
VERTEX
  8
0
 10
-69.575364774269019
 20
65.844967552153079
 30
3.389621631568874
 70
   192
  0
VERTEX
  8
0
 10
-69.461150599931017
 20
65.909775023674726
 30
3.389270781662878
 70
   192
  0
VERTEX
  8
0
 62
   151
 10
0
 20
0
 30
0
 70
   128
 71
     1
 72
     2
 73
     4
 74
     3
  0
VERTEX
  8
0
 62
   151
 10
0
 20
0
 30
0
 70
   128
 71
     1
 72
     2
 73
     6
 74
     5
  0
VERTEX
  8
0
 62
   151
 10
0
 20
0
 30
0
 70
   128
 71
     2
 72
     4
 73
     8
 74
     6
  0
VERTEX
  8
0
 62
   151
 10
0
 20
0
 30
0
 70
   128
 71
     3
 72
     4
 73
     8
 74
     7
  0
VERTEX
  8
0
 62
   151
 10
0
 20
0
 30
0
 70
   128
 71
     3
 72
     1
 73
     5
 74
     7
  0
VERTEX
  8
0
 62
   151
 10
0
 20
0
 30
0
 70
   128
 71
     5
 72
     6
 73
     8
 74
     7
  0
SEQEND
  8
0
  0
POLYLINE
  8
0
 62
   151
 66
     1
 10
0
 20
0
 30
0
 70
    64
 71
     8
 72
     6
  0
VERTEX
  8
0
 10
-69.764168098846
 20
65.878610059506741
 30
3.289488858120223
 70
   192
  0
VERTEX
  8
0
 10
-70.057244514154178
 20
66.395705159308164
 30
3.290130112091108
 70
   192
  0
VERTEX
  8
0
 10
-69.433780249797593
 20
66.065861293267687
 30
3.292905680521235
 70
   192
  0
VERTEX
  8
0
 10
-69.726856665105771
 20
66.582956393069111
 30
3.293546934492119
 70
   192
  0
VERTEX
  8
0
 10
-69.762628353410605
 20
65.879744478251496
 30
3.078434724366342
 70
   192
  0
VERTEX
  8
0
 10
-70.055704768718783
 20
66.396839578052919
 30
3.079075978337226
 70
   192
  0
VERTEX
  8
0
 10
-69.432240504362198
 20
66.066995712012442
 30
3.081851546767354
 70
   192
  0
VERTEX
  8
0
 10
-69.725316919670377
 20
66.584090811813866
 30
3.082492800738238
 70
   192
  0
VERTEX
  8
0
 62
   151
 10
0
 20
0
 30
0
 70
   128
 71
     1
 72
     2
 73
     4
 74
     3
  0
VERTEX
  8
0
 62
   151
 10
0
 20
0
 30
0
 70
   128
 71
     1
 72
     2
 73
     6
 74
     5
  0
VERTEX
  8
0
 62
   151
 10
0
 20
0
 30
0
 70
   128
 71
     2
 72
     4
 73
     8
 74
     6
  0
VERTEX
  8
0
 62
   151
 10
0
 20
0
 30
0
 70
   128
 71
     3
 72
     4
 73
     8
 74
     7
  0
VERTEX
  8
0
 62
   151
 10
0
 20
0
 30
0
 70
   128
 71
     3
 72
     1
 73
     5
 74
     7
  0
VERTEX
  8
0
 62
   151
 10
0
 20
0
 30
0
 70
   128
 71
     5
 72
     6
 73
     8
 74
     7
  0
SEQEND
  8
0
  0
POLYLINE
  8
0
 62
   151
 66
     1
 10
0
 20
0
 30
0
 70
    64
 71
     8
 72
     6
  0
VERTEX
  8
0
 10
-69.572115361996609
 20
65.843574693210499
 30
3.277190087639831
 70
   192
  0
VERTEX
  8
0
 10
-69.630726685816271
 20
65.946986727604823
 30
3.277318329771149
 70
   192
  0
VERTEX
  8
0
 10
-69.46373215809227
 20
65.905002160075597
 30
3.27831097074755
 70
   192
  0
VERTEX
  8
0
 10
-69.522343481911932
 20
66.008414194469921
 30
3.278439212878868
 70
   192
  0
VERTEX
  8
0
 10
-69.571210059656707
 20
65.84424168135051
 30
3.153099574532082
 70
   192
  0
VERTEX
  8
0
 10
-69.629821383476369
 20
65.947653715744835
 30
3.1532278166634
 70
   192
  0
VERTEX
  8
0
 10
-69.462826855752368
 20
65.905669148215608
 30
3.154220457639801
 70
   192
  0
VERTEX
  8
0
 10
-69.52143817957203
 20
66.009081182609933
 30
3.154348699771119
 70
   192
  0
VERTEX
  8
0
 62
   151
 10
0
 20
0
 30
0
 70
   128
 71
     1
 72
     2
 73
     4
 74
     3
  0
VERTEX
  8
0
 62
   151
 10
0
 20
0
 30
0
 70
   128
 71
     1
 72
     2
 73
     6
 74
     5
  0
VERTEX
  8
0
 62
   151
 10
0
 20
0
 30
0
 70
   128
 71
     2
 72
     4
 73
     8
 74
     6
  0
VERTEX
  8
0
 62
   151
 10
0
 20
0
 30
0
 70
   128
 71
     3
 72
     4
 73
     8
 74
     7
  0
VERTEX
  8
0
 62
   151
 10
0
 20
0
 30
0
 70
   128
 71
     3
 72
     1
 73
     5
 74
     7
  0
VERTEX
  8
0
 62
   151
 10
0
 20
0
 30
0
 70
   128
 71
     5
 72
     6
 73
     8
 74
     7
  0
SEQEND
  8
0
  0
ENDSEC
  0
EOF
