  0
SECTION
  2
HEADER
  0
ENDSEC
  0
SECTION
  2
TABLES
  0
TABLE
  2
LAYER
 70
     1
  0
LAYER
  2
0
 70
     0
 62
   254
  6
CONTINUOUS
  0
ENDTAB
  0
ENDSEC
  0
SECTION
  2
BLOCKS
  0
ENDSEC
  0
SECTION
  2
ENTITIES
  0
POLYLINE
  8
0
 62
   151
 66
     1
 10
0
 20
0
 30
0
 70
    64
 71
     8
 72
     6
  0
VERTEX
  8
0
 10
-120.83535960727826
 20
20.824298194056908
 30
10.01772981462128
 70
   192
  0
VERTEX
  8
0
 10
-120.7404977538946
 20
20.7072576477211
 30
10.017586461348586
 70
   192
  0
VERTEX
  8
0
 10
-120.70763799001153
 20
20.927818283177764
 30
10.016763974423625
 70
   192
  0
VERTEX
  8
0
 10
-120.61277613662787
 20
20.810777736841956
 30
10.016620621150931
 70
   192
  0
VERTEX
  8
0
 10
-120.83423059330562
 20
20.824945432119677
 30
10.236401219017509
 70
   192
  0
VERTEX
  8
0
 10
-120.73936873992196
 20
20.707904885783869
 30
10.236257865744815
 70
   192
  0
VERTEX
  8
0
 10
-120.70650897603889
 20
20.928465521240533
 30
10.235435378819854
 70
   192
  0
VERTEX
  8
0
 10
-120.61164712265523
 20
20.811424974904725
 30
10.23529202554716
 70
   192
  0
VERTEX
  8
0
 62
   151
 10
0
 20
0
 30
0
 70
   128
 71
     1
 72
     2
 73
     4
 74
     3
  0
VERTEX
  8
0
 62
   151
 10
0
 20
0
 30
0
 70
   128
 71
     1
 72
     2
 73
     6
 74
     5
  0
VERTEX
  8
0
 62
   151
 10
0
 20
0
 30
0
 70
   128
 71
     2
 72
     4
 73
     8
 74
     6
  0
VERTEX
  8
0
 62
   151
 10
0
 20
0
 30
0
 70
   128
 71
     3
 72
     4
 73
     8
 74
     7
  0
VERTEX
  8
0
 62
   151
 10
0
 20
0
 30
0
 70
   128
 71
     3
 72
     1
 73
     5
 74
     7
  0
VERTEX
  8
0
 62
   151
 10
0
 20
0
 30
0
 70
   128
 71
     5
 72
     6
 73
     8
 74
     7
  0
SEQEND
  8
0
  0
POLYLINE
  8
0
 62
   151
 66
     1
 10
0
 20
0
 30
0
 70
    64
 71
     8
 72
     6
  0
VERTEX
  8
0
 10
-121.31537760738692
 20
20.6120795038333
 30
10.020836316109495
 70
   192
  0
VERTEX
  8
0
 10
-121.06191336189733
 20
20.29935534010955
 30
10.020453286179063
 70
   192
  0
VERTEX
  8
0
 10
-120.86092445333219
 20
20.98041989926336
 30
10.017399708168497
 70
   192
  0
VERTEX
  8
0
 10
-120.60746020784259
 20
20.66769573553961
 30
10.017016678238065
 70
   192
  0
VERTEX
  8
0
 10
-121.31424859341428
 20
20.612726741896068
 30
10.239507720505724
 70
   192
  0
VERTEX
  8
0
 10
-121.06078434792468
 20
20.300002578172318
 30
10.239124690575292
 70
   192
  0
VERTEX
  8
0
 10
-120.85979543935954
 20
20.981067137326129
 30
10.236071112564726
 70
   192
  0
VERTEX
  8
0
 10
-120.60633119386995
 20
20.668342973602378
 30
10.235688082634294
 70
   192
  0
VERTEX
  8
0
 62
   151
 10
0
 20
0
 30
0
 70
   128
 71
     1
 72
     2
 73
     4
 74
     3
  0
VERTEX
  8
0
 62
   151
 10
0
 20
0
 30
0
 70
   128
 71
     1
 72
     2
 73
     6
 74
     5
  0
VERTEX
  8
0
 62
   151
 10
0
 20
0
 30
0
 70
   128
 71
     2
 72
     4
 73
     8
 74
     6
  0
VERTEX
  8
0
 62
   151
 10
0
 20
0
 30
0
 70
   128
 71
     3
 72
     4
 73
     8
 74
     7
  0
VERTEX
  8
0
 62
   151
 10
0
 20
0
 30
0
 70
   128
 71
     3
 72
     1
 73
     5
 74
     7
  0
VERTEX
  8
0
 62
   151
 10
0
 20
0
 30
0
 70
   128
 71
     5
 72
     6
 73
     8
 74
     7
  0
SEQEND
  8
0
  0
POLYLINE
  8
0
 62
   151
 66
     1
 10
0
 20
0
 30
0
 70
    64
 71
     8
 72
     6
  0
VERTEX
  8
0
 10
-120.76457421932095
 20
20.890166328835903
 30
2.67982682212509
 70
   192
  0
VERTEX
  8
0
 10
-120.67715126620583
 20
20.78230389699516
 30
2.67969471036477
 70
   192
  0
VERTEX
  8
0
 10
-120.62512640531661
 20
21.003190658173132
 30
2.678772307571309
 70
   192
  0
VERTEX
  8
0
 10
-120.53770345220148
 20
20.895328226332389
 30
2.678640195810989
 70
   192
  0
VERTEX
  8
0
 10
-120.7252967315643
 20
20.912683220302323
 30
10.287229048329943
 70
   192
  0
VERTEX
  8
0
 10
-120.63787377844918
 20
20.80482078846158
 30
10.287096936569622
 70
   192
  0
VERTEX
  8
0
 10
-120.58584891755996
 20
21.025707549639552
 30
10.286174533776162
 70
   192
  0
VERTEX
  8
0
 10
-120.49842596444483
 20
20.917845117798809
 30
10.286042422015843
 70
   192
  0
VERTEX
  8
0
 62
   151
 10
0
 20
0
 30
0
 70
   128
 71
     1
 72
     2
 73
     4
 74
     3
  0
VERTEX
  8
0
 62
   151
 10
0
 20
0
 30
0
 70
   128
 71
     1
 72
     2
 73
     6
 74
     5
  0
VERTEX
  8
0
 62
   151
 10
0
 20
0
 30
0
 70
   128
 71
     2
 72
     4
 73
     8
 74
     6
  0
VERTEX
  8
0
 62
   151
 10
0
 20
0
 30
0
 70
   128
 71
     3
 72
     4
 73
     8
 74
     7
  0
VERTEX
  8
0
 62
   151
 10
0
 20
0
 30
0
 70
   128
 71
     3
 72
     1
 73
     5
 74
     7
  0
VERTEX
  8
0
 62
   151
 10
0
 20
0
 30
0
 70
   128
 71
     5
 72
     6
 73
     8
 74
     7
  0
SEQEND
  8
0
  0
POLYLINE
  8
0
 62
   151
 66
     1
 10
0
 20
0
 30
0
 70
    64
 71
     8
 72
     6
  0
VERTEX
  8
0
 10
-120.86758202531435
 20
20.886743093808363
 30
2.63467763383689
 70
   192
  0
VERTEX
  8
0
 10
-120.70093534469255
 20
20.68113443395923
 30
2.634425800816568
 70
   192
  0
VERTEX
  8
0
 10
-120.58162815605714
 20
21.118512551974071
 30
2.632515229793523
 70
   192
  0
VERTEX
  8
0
 10
-120.41498147543534
 20
20.912903892124937
 30
2.632263396773201
 70
   192
  0
VERTEX
  8
0
 10
-120.86711260572849
 20
20.887012201393151
 30
2.725596473263387
 70
   192
  0
VERTEX
  8
0
 10
-120.7004659251067
 20
20.681403541544018
 30
2.725344640243065
 70
   192
  0
VERTEX
  8
0
 10
-120.58115873647128
 20
21.118781659558859
 30
2.72343406922002
 70
   192
  0
VERTEX
  8
0
 10
-120.41451205584949
 20
20.913172999709726
 30
2.723182236199698
 70
   192
  0
VERTEX
  8
0
 62
   151
 10
0
 20
0
 30
0
 70
   128
 71
     1
 72
     2
 73
     4
 74
     3
  0
VERTEX
  8
0
 62
   151
 10
0
 20
0
 30
0
 70
   128
 71
     1
 72
     2
 73
     6
 74
     5
  0
VERTEX
  8
0
 62
   151
 10
0
 20
0
 30
0
 70
   128
 71
     2
 72
     4
 73
     8
 74
     6
  0
VERTEX
  8
0
 62
   151
 10
0
 20
0
 30
0
 70
   128
 71
     3
 72
     4
 73
     8
 74
     7
  0
VERTEX
  8
0
 62
   151
 10
0
 20
0
 30
0
 70
   128
 71
     3
 72
     1
 73
     5
 74
     7
  0
VERTEX
  8
0
 62
   151
 10
0
 20
0
 30
0
 70
   128
 71
     5
 72
     6
 73
     8
 74
     7
  0
SEQEND
  8
0
  0
CIRCLE
  8
0
 62
     9
 10
-94.503312224576987
 20
-41.484124366373067
 30
5.554088479953432
 39
0.327748487265537
 40
0.383403784891284
210
-0.00714172563378
220
-0.031163389141482
230
0.999488788797647
  0
POLYLINE
  8
0
 62
   151
 66
     1
 10
0
 20
0
 30
0
 70
    64
 71
     8
 72
     6
  0
VERTEX
  8
0
 10
-101.48716034446127
 20
-19.635780099314463
 30
4.676801843794517
 70
   192
  0
VERTEX
  8
0
 10
-101.65215081712478
 20
-19.435835251465651
 30
4.678645512164498
 70
   192
  0
VERTEX
  8
0
 10
-101.22024918162984
 20
-19.415548723941679
 30
4.678792480691256
 70
   192
  0
VERTEX
  8
0
 10
-101.38523965429334
 20
-19.215603876092867
 30
4.680636149061237
 70
   192
  0
VERTEX
  8
0
 10
-101.48717093727655
 20
-19.634695804180655
 30
4.558262662503238
 70
   192
  0
VERTEX
  8
0
 10
-101.65216140994005
 20
-19.434750956331843
 30
4.560106330873219
 70
   192
  0
VERTEX
  8
0
 10
-101.22025977444511
 20
-19.414464428807872
 30
4.560253299399977
 70
   192
  0
VERTEX
  8
0
 10
-101.38525024710862
 20
-19.21451958095906
 30
4.562096967769958
 70
   192
  0
VERTEX
  8
0
 62
   151
 10
0
 20
0
 30
0
 70
   128
 71
     1
 72
     2
 73
     4
 74
     3
  0
VERTEX
  8
0
 62
   151
 10
0
 20
0
 30
0
 70
   128
 71
     1
 72
     2
 73
     6
 74
     5
  0
VERTEX
  8
0
 62
   151
 10
0
 20
0
 30
0
 70
   128
 71
     2
 72
     4
 73
     8
 74
     6
  0
VERTEX
  8
0
 62
   151
 10
0
 20
0
 30
0
 70
   128
 71
     3
 72
     4
 73
     8
 74
     7
  0
VERTEX
  8
0
 62
   151
 10
0
 20
0
 30
0
 70
   128
 71
     3
 72
     1
 73
     5
 74
     7
  0
VERTEX
  8
0
 62
   151
 10
0
 20
0
 30
0
 70
   128
 71
     5
 72
     6
 73
     8
 74
     7
  0
SEQEND
  8
0
  0
POLYLINE
  8
0
 62
   151
 66
     1
 10
0
 20
0
 30
0
 70
    64
 71
     8
 72
     6
  0
VERTEX
  8
0
 10
-101.43351351997848
 20
-19.576428194234868
 30
12.186210031495449
 70
   192
  0
VERTEX
  8
0
 10
-101.52009280197692
 20
-19.478667107909619
 30
12.187112003209389
 70
   192
  0
VERTEX
  8
0
 10
-101.33579857868784
 20
-19.489897001418829
 30
12.186992812968715
 70
   192
  0
VERTEX
  8
0
 10
-101.42237786068628
 20
-19.392135915093579
 30
12.187894784682655
 70
   192
  0
VERTEX
  8
0
 10
-101.43419196600973
 20
-19.506981525745442
 30
4.594041654573319
 70
   192
  0
VERTEX
  8
0
 10
-101.52077124800817
 20
-19.409220439420192
 30
4.594943626287259
 70
   192
  0
VERTEX
  8
0
 10
-101.3364770247191
 20
-19.420450332929402
 30
4.594824436046585
 70
   192
  0
VERTEX
  8
0
 10
-101.42305630671754
 20
-19.322689246604153
 30
4.595726407760525
 70
   192
  0
VERTEX
  8
0
 62
   151
 10
0
 20
0
 30
0
 70
   128
 71
     1
 72
     2
 73
     4
 74
     3
  0
VERTEX
  8
0
 62
   151
 10
0
 20
0
 30
0
 70
   128
 71
     1
 72
     2
 73
     6
 74
     5
  0
VERTEX
  8
0
 62
   151
 10
0
 20
0
 30
0
 70
   128
 71
     2
 72
     4
 73
     8
 74
     6
  0
VERTEX
  8
0
 62
   151
 10
0
 20
0
 30
0
 70
   128
 71
     3
 72
     4
 73
     8
 74
     7
  0
VERTEX
  8
0
 62
   151
 10
0
 20
0
 30
0
 70
   128
 71
     3
 72
     1
 73
     5
 74
     7
  0
VERTEX
  8
0
 62
   151
 10
0
 20
0
 30
0
 70
   128
 71
     5
 72
     6
 73
     8
 74
     7
  0
SEQEND
  8
0
  0
POLYLINE
  8
0
 62
   151
 66
     1
 10
0
 20
0
 30
0
 70
    64
 71
     8
 72
     6
  0
VERTEX
  8
0
 10
-101.34103768438428
 20
-19.494358994758507
 30
12.134095021550689
 70
   192
  0
VERTEX
  8
0
 10
-101.43011070711074
 20
-19.393782098496317
 30
12.135022972731619
 70
   192
  0
VERTEX
  8
0
 10
-101.24332274309364
 20
-19.407827801942467
 30
12.134877803023954
 70
   192
  0
VERTEX
  8
0
 10
-101.33239576582011
 20
-19.307250905680277
 30
12.135805754204885
 70
   192
  0
VERTEX
  8
0
 10
-101.34105006519761
 20
-19.493091677684426
 30
11.995547200285031
 70
   192
  0
VERTEX
  8
0
 10
-101.43012308792407
 20
-19.392514781422236
 30
11.996475151465962
 70
   192
  0
VERTEX
  8
0
 10
-101.24333512390697
 20
-19.406560484868386
 30
11.996329981758297
 70
   192
  0
VERTEX
  8
0
 10
-101.33240814663344
 20
-19.305983588606196
 30
11.997257932939227
 70
   192
  0
VERTEX
  8
0
 62
   151
 10
0
 20
0
 30
0
 70
   128
 71
     1
 72
     2
 73
     4
 74
     3
  0
VERTEX
  8
0
 62
   151
 10
0
 20
0
 30
0
 70
   128
 71
     1
 72
     2
 73
     6
 74
     5
  0
VERTEX
  8
0
 62
   151
 10
0
 20
0
 30
0
 70
   128
 71
     2
 72
     4
 73
     8
 74
     6
  0
VERTEX
  8
0
 62
   151
 10
0
 20
0
 30
0
 70
   128
 71
     3
 72
     4
 73
     8
 74
     7
  0
VERTEX
  8
0
 62
   151
 10
0
 20
0
 30
0
 70
   128
 71
     3
 72
     1
 73
     5
 74
     7
  0
VERTEX
  8
0
 62
   151
 10
0
 20
0
 30
0
 70
   128
 71
     5
 72
     6
 73
     8
 74
     7
  0
SEQEND
  8
0
  0
POLYLINE
  8
0
 62
   151
 66
     1
 10
0
 20
0
 30
0
 70
    64
 71
     8
 72
     6
  0
VERTEX
  8
0
 10
-101.15947767984417
 20
-19.52775169302663
 30
12.150800624355412
 70
   192
  0
VERTEX
  8
0
 10
-101.44480512950921
 20
-19.205573906449828
 30
12.15377312866439
 70
   192
  0
VERTEX
  8
0
 10
-100.72531466576626
 20
-19.143279850864566
 30
12.154278646849299
 70
   192
  0
VERTEX
  8
0
 10
-101.0106421154313
 20
-18.821102064287764
 30
12.157251151158277
 70
   192
  0
VERTEX
  8
0
 10
-101.15949602533414
 20
-19.525873823452844
 30
11.945504930491474
 70
   192
  0
VERTEX
  8
0
 10
-101.44482347499917
 20
-19.203696036876043
 30
11.948477434800452
 70
   192
  0
VERTEX
  8
0
 10
-100.72533301125623
 20
-19.14140198129078
 30
11.948982952985361
 70
   192
  0
VERTEX
  8
0
 10
-101.01066046092126
 20
-18.819224194713978
 30
11.951955457294339
 70
   192
  0
VERTEX
  8
0
 62
   151
 10
0
 20
0
 30
0
 70
   128
 71
     1
 72
     2
 73
     4
 74
     3
  0
VERTEX
  8
0
 62
   151
 10
0
 20
0
 30
0
 70
   128
 71
     1
 72
     2
 73
     6
 74
     5
  0
VERTEX
  8
0
 62
   151
 10
0
 20
0
 30
0
 70
   128
 71
     2
 72
     4
 73
     8
 74
     6
  0
VERTEX
  8
0
 62
   151
 10
0
 20
0
 30
0
 70
   128
 71
     3
 72
     4
 73
     8
 74
     7
  0
VERTEX
  8
0
 62
   151
 10
0
 20
0
 30
0
 70
   128
 71
     3
 72
     1
 73
     5
 74
     7
  0
VERTEX
  8
0
 62
   151
 10
0
 20
0
 30
0
 70
   128
 71
     5
 72
     6
 73
     8
 74
     7
  0
SEQEND
  8
0
  0
POLYLINE
  8
0
 62
   151
 66
     1
 10
0
 20
0
 30
0
 70
    64
 71
     8
 72
     6
  0
VERTEX
  8
0
 10
-71.069927439020063
 20
-48.979069914595215
 30
12.974801300060859
 70
   192
  0
VERTEX
  8
0
 10
-71.13171021088101
 20
-48.872802283501699
 30
12.97442913186134
 70
   192
  0
VERTEX
  8
0
 10
-70.972517276292251
 20
-48.922434313876423
 30
12.975503303060387
 70
   192
  0
VERTEX
  8
0
 10
-71.034300048153199
 20
-48.816166682782907
 30
12.975131134860868
 70
   192
  0
VERTEX
  8
0
 10
-71.017738792913818
 20
-48.975186931620961
 30
5.419819930099852
 70
   192
  0
VERTEX
  8
0
 10
-71.079521564774765
 20
-48.868919300527445
 30
5.419447761900333
 70
   192
  0
VERTEX
  8
0
 10
-70.920328630186006
 20
-48.918551330902169
 30
5.42052193309938
 70
   192
  0
VERTEX
  8
0
 10
-70.982111402046954
 20
-48.812283699808653
 30
5.420149764899861
 70
   192
  0
VERTEX
  8
0
 62
   151
 10
0
 20
0
 30
0
 70
   128
 71
     1
 72
     2
 73
     4
 74
     3
  0
VERTEX
  8
0
 62
   151
 10
0
 20
0
 30
0
 70
   128
 71
     1
 72
     2
 73
     6
 74
     5
  0
VERTEX
  8
0
 62
   151
 10
0
 20
0
 30
0
 70
   128
 71
     2
 72
     4
 73
     8
 74
     6
  0
VERTEX
  8
0
 62
   151
 10
0
 20
0
 30
0
 70
   128
 71
     3
 72
     4
 73
     8
 74
     7
  0
VERTEX
  8
0
 62
   151
 10
0
 20
0
 30
0
 70
   128
 71
     3
 72
     1
 73
     5
 74
     7
  0
VERTEX
  8
0
 62
   151
 10
0
 20
0
 30
0
 70
   128
 71
     5
 72
     6
 73
     8
 74
     7
  0
SEQEND
  8
0
  0
POLYLINE
  8
0
 62
   151
 66
     1
 10
0
 20
0
 30
0
 70
    64
 71
     8
 72
     6
  0
VERTEX
  8
0
 10
-71.066138674902703
 20
-49.109405531957968
 30
5.381656219479183
 70
   192
  0
VERTEX
  8
0
 10
-71.203133720700919
 20
-48.873771251558757
 30
5.38083098619809
 70
   192
  0
VERTEX
  8
0
 10
-70.798239474262459
 20
-48.953645273115804
 30
5.383586880892262
 70
   192
  0
VERTEX
  8
0
 10
-70.935234520060675
 20
-48.718010992716593
 30
5.382761647611169
 70
   192
  0
VERTEX
  8
0
 10
-71.064798345447969
 20
-49.109305807653143
 30
5.187626199242377
 70
   192
  0
VERTEX
  8
0
 10
-71.201793391246184
 20
-48.873671527253933
 30
5.186800965961284
 70
   192
  0
VERTEX
  8
0
 10
-70.796899144807725
 20
-48.953545548810979
 30
5.189556860655456
 70
   192
  0
VERTEX
  8
0
 10
-70.93389419060594
 20
-48.717911268411768
 30
5.188731627374363
 70
   192
  0
VERTEX
  8
0
 62
   151
 10
0
 20
0
 30
0
 70
   128
 71
     1
 72
     2
 73
     4
 74
     3
  0
VERTEX
  8
0
 62
   151
 10
0
 20
0
 30
0
 70
   128
 71
     1
 72
     2
 73
     6
 74
     5
  0
VERTEX
  8
0
 62
   151
 10
0
 20
0
 30
0
 70
   128
 71
     2
 72
     4
 73
     8
 74
     6
  0
VERTEX
  8
0
 62
   151
 10
0
 20
0
 30
0
 70
   128
 71
     3
 72
     4
 73
     8
 74
     7
  0
VERTEX
  8
0
 62
   151
 10
0
 20
0
 30
0
 70
   128
 71
     3
 72
     1
 73
     5
 74
     7
  0
VERTEX
  8
0
 62
   151
 10
0
 20
0
 30
0
 70
   128
 71
     5
 72
     6
 73
     8
 74
     7
  0
SEQEND
  8
0
  0
POLYLINE
  8
0
 62
   151
 66
     1
 10
0
 20
0
 30
0
 70
    64
 71
     8
 72
     6
  0
VERTEX
  8
0
 10
-71.169760511722146
 20
-49.033547418958136
 30
12.923420513161226
 70
   192
  0
VERTEX
  8
0
 10
-71.229335539179388
 20
-48.931077153388657
 30
12.923061644013124
 70
   192
  0
VERTEX
  8
0
 10
-71.072350348994334
 20
-48.976911818239344
 30
12.924122516160754
 70
   192
  0
VERTEX
  8
0
 10
-71.131925376451576
 20
-48.874441552669865
 30
12.923763647012652
 70
   192
  0
VERTEX
  8
0
 10
-71.168333536157618
 20
-49.033441247937517
 30
12.716847348120169
 70
   192
  0
VERTEX
  8
0
 10
-71.227908563614861
 20
-48.930970982368038
 30
12.716488478972067
 70
   192
  0
VERTEX
  8
0
 10
-71.070923373429807
 20
-48.976805647218725
 30
12.717549351119697
 70
   192
  0
VERTEX
  8
0
 10
-71.130498400887049
 20
-48.874335381649246
 30
12.717190481971596
 70
   192
  0
VERTEX
  8
0
 62
   151
 10
0
 20
0
 30
0
 70
   128
 71
     1
 72
     2
 73
     4
 74
     3
  0
VERTEX
  8
0
 62
   151
 10
0
 20
0
 30
0
 70
   128
 71
     1
 72
     2
 73
     6
 74
     5
  0
VERTEX
  8
0
 62
   151
 10
0
 20
0
 30
0
 70
   128
 71
     2
 72
     4
 73
     8
 74
     6
  0
VERTEX
  8
0
 62
   151
 10
0
 20
0
 30
0
 70
   128
 71
     3
 72
     4
 73
     8
 74
     7
  0
VERTEX
  8
0
 62
   151
 10
0
 20
0
 30
0
 70
   128
 71
     3
 72
     1
 73
     5
 74
     7
  0
VERTEX
  8
0
 62
   151
 10
0
 20
0
 30
0
 70
   128
 71
     5
 72
     6
 73
     8
 74
     7
  0
SEQEND
  8
0
  0
POLYLINE
  8
0
 62
   151
 66
     1
 10
0
 20
0
 30
0
 70
    64
 71
     8
 72
     6
  0
VERTEX
  8
0
 10
-71.492772196482761
 20
-49.41678537240405
 30
12.927817305423332
 70
   192
  0
VERTEX
  8
0
 10
-71.69548164183108
 20
-49.068120980881972
 30
12.926596220531401
 70
   192
  0
VERTEX
  8
0
 10
-71.085620322789808
 20
-49.180061705133213
 30
12.930751515043678
 70
   192
  0
VERTEX
  8
0
 10
-71.288329768138126
 20
-48.831397313611134
 30
12.929530430151747
 70
   192
  0
VERTEX
  8
0
 10
-71.491215980509708
 20
-49.41666958553126
 30
12.702534920052598
 70
   192
  0
VERTEX
  8
0
 10
-71.693925425858026
 20
-49.068005194009181
 30
12.701313835160667
 70
   192
  0
VERTEX
  8
0
 10
-71.084064106816754
 20
-49.179945918260422
 30
12.705469129672943
 70
   192
  0
VERTEX
  8
0
 10
-71.286773552165073
 20
-48.831281526738344
 30
12.704248044781012
 70
   192
  0
VERTEX
  8
0
 62
   151
 10
0
 20
0
 30
0
 70
   128
 71
     1
 72
     2
 73
     4
 74
     3
  0
VERTEX
  8
0
 62
   151
 10
0
 20
0
 30
0
 70
   128
 71
     1
 72
     2
 73
     6
 74
     5
  0
VERTEX
  8
0
 62
   151
 10
0
 20
0
 30
0
 70
   128
 71
     2
 72
     4
 73
     8
 74
     6
  0
VERTEX
  8
0
 62
   151
 10
0
 20
0
 30
0
 70
   128
 71
     3
 72
     4
 73
     8
 74
     7
  0
VERTEX
  8
0
 62
   151
 10
0
 20
0
 30
0
 70
   128
 71
     3
 72
     1
 73
     5
 74
     7
  0
VERTEX
  8
0
 62
   151
 10
0
 20
0
 30
0
 70
   128
 71
     5
 72
     6
 73
     8
 74
     7
  0
SEQEND
  8
0
  0
CIRCLE
  8
0
 62
     9
 10
-36.618215536023513
 20
-101.57210637073763
 30
9.369965696795234
 39
0.303509976235359
 40
0.383403784891284
210
-0.00714172563378
220
-0.031163389141482
230
0.999488788797647
  0
POLYLINE
  8
0
 62
   151
 66
     1
 10
0
 20
0
 30
0
 70
    64
 71
     8
 72
     6
  0
VERTEX
  8
0
 10
-58.426854715464913
 20
-91.225177390348165
 30
14.004395801819545
 70
   192
  0
VERTEX
  8
0
 10
-58.513433997463352
 20
-91.127416304022915
 30
14.005297773533485
 70
   192
  0
VERTEX
  8
0
 10
-58.32913977417428
 20
-91.138646197532125
 30
14.00517858329281
 70
   192
  0
VERTEX
  8
0
 10
-58.415719056172719
 20
-91.040885111206876
 30
14.006080555006751
 70
   192
  0
VERTEX
  8
0
 10
-58.427541623286793
 20
-91.154864561337604
 30
6.317535531665375
 70
   192
  0
VERTEX
  8
0
 10
-58.514120905285232
 20
-91.057103475012354
 30
6.318437503379315
 70
   192
  0
VERTEX
  8
0
 10
-58.32982668199616
 20
-91.068333368521564
 30
6.318318313138641
 70
   192
  0
VERTEX
  8
0
 10
-58.416405963994599
 20
-90.970572282196315
 30
6.319220284852581
 70
   192
  0
VERTEX
  8
0
 62
   151
 10
0
 20
0
 30
0
 70
   128
 71
     1
 72
     2
 73
     4
 74
     3
  0
VERTEX
  8
0
 62
   151
 10
0
 20
0
 30
0
 70
   128
 71
     1
 72
     2
 73
     6
 74
     5
  0
VERTEX
  8
0
 62
   151
 10
0
 20
0
 30
0
 70
   128
 71
     2
 72
     4
 73
     8
 74
     6
  0
VERTEX
  8
0
 62
   151
 10
0
 20
0
 30
0
 70
   128
 71
     3
 72
     4
 73
     8
 74
     7
  0
VERTEX
  8
0
 62
   151
 10
0
 20
0
 30
0
 70
   128
 71
     3
 72
     1
 73
     5
 74
     7
  0
VERTEX
  8
0
 62
   151
 10
0
 20
0
 30
0
 70
   128
 71
     5
 72
     6
 73
     8
 74
     7
  0
SEQEND
  8
0
  0
POLYLINE
  8
0
 62
   151
 66
     1
 10
0
 20
0
 30
0
 70
    64
 71
     8
 72
     6
  0
VERTEX
  8
0
 10
-58.430704812333445
 20
-91.268533300200673
 30
6.489180612117271
 70
   192
  0
VERTEX
  8
0
 10
-58.628400849005985
 20
-91.045304614755437
 30
6.491240183748276
 70
   192
  0
VERTEX
  8
0
 10
-58.215791498781087
 20
-91.07821741679426
 30
6.490902254252906
 70
   192
  0
VERTEX
  8
0
 10
-58.413487535453626
 20
-90.854988731349025
 30
6.492961825883911
 70
   192
  0
VERTEX
  8
0
 10
-58.430720242357367
 20
-91.266953861738699
 30
6.316510518574754
 70
   192
  0
VERTEX
  8
0
 10
-58.628416279029906
 20
-91.043725176293464
 30
6.318570090205759
 70
   192
  0
VERTEX
  8
0
 10
-58.215806928805009
 20
-91.076637978332286
 30
6.318232160710389
 70
   192
  0
VERTEX
  8
0
 10
-58.413502965477548
 20
-90.853409292887051
 30
6.320291732341394
 70
   192
  0
VERTEX
  8
0
 62
   151
 10
0
 20
0
 30
0
 70
   128
 71
     1
 72
     2
 73
     4
 74
     3
  0
VERTEX
  8
0
 62
   151
 10
0
 20
0
 30
0
 70
   128
 71
     1
 72
     2
 73
     6
 74
     5
  0
VERTEX
  8
0
 62
   151
 10
0
 20
0
 30
0
 70
   128
 71
     2
 72
     4
 73
     8
 74
     6
  0
VERTEX
  8
0
 62
   151
 10
0
 20
0
 30
0
 70
   128
 71
     3
 72
     4
 73
     8
 74
     7
  0
VERTEX
  8
0
 62
   151
 10
0
 20
0
 30
0
 70
   128
 71
     3
 72
     1
 73
     5
 74
     7
  0
VERTEX
  8
0
 62
   151
 10
0
 20
0
 30
0
 70
   128
 71
     5
 72
     6
 73
     8
 74
     7
  0
SEQEND
  8
0
  0
POLYLINE
  8
0
 62
   151
 66
     1
 10
0
 20
0
 30
0
 70
    64
 71
     8
 72
     6
  0
VERTEX
  8
0
 10
-58.347385435825636
 20
-91.130989785800821
 30
13.89672326057568
 70
   192
  0
VERTEX
  8
0
 10
-58.433964717824075
 20
-91.033228699475572
 30
13.89762523228962
 70
   192
  0
VERTEX
  8
0
 10
-58.249670494535003
 20
-91.044458592984782
 30
13.897506042048946
 70
   192
  0
VERTEX
  8
0
 10
-58.336249776533442
 20
-90.946697506659532
 30
13.898408013762886
 70
   192
  0
VERTEX
  8
0
 10
-58.347393966047989
 20
-91.130116620513107
 30
13.801265580179225
 70
   192
  0
VERTEX
  8
0
 10
-58.433973248046428
 20
-91.032355534187857
 30
13.802167551893165
 70
   192
  0
VERTEX
  8
0
 10
-58.249679024757356
 20
-91.043585427697067
 30
13.80204836165249
 70
   192
  0
VERTEX
  8
0
 10
-58.336258306755795
 20
-90.945824341371818
 30
13.802950333366431
 70
   192
  0
VERTEX
  8
0
 62
   151
 10
0
 20
0
 30
0
 70
   128
 71
     1
 72
     2
 73
     4
 74
     3
  0
VERTEX
  8
0
 62
   151
 10
0
 20
0
 30
0
 70
   128
 71
     1
 72
     2
 73
     6
 74
     5
  0
VERTEX
  8
0
 62
   151
 10
0
 20
0
 30
0
 70
   128
 71
     2
 72
     4
 73
     8
 74
     6
  0
VERTEX
  8
0
 62
   151
 10
0
 20
0
 30
0
 70
   128
 71
     3
 72
     4
 73
     8
 74
     7
  0
VERTEX
  8
0
 62
   151
 10
0
 20
0
 30
0
 70
   128
 71
     3
 72
     1
 73
     5
 74
     7
  0
VERTEX
  8
0
 62
   151
 10
0
 20
0
 30
0
 70
   128
 71
     5
 72
     6
 73
     8
 74
     7
  0
SEQEND
  8
0
  0
POLYLINE
  8
0
 62
   151
 66
     1
 10
0
 20
0
 30
0
 70
    64
 71
     8
 72
     6
  0
VERTEX
  8
0
 10
-58.164295202412696
 20
-91.220503096935701
 30
13.942958187834371
 70
   192
  0
VERTEX
  8
0
 10
-58.517529589395643
 20
-90.821648121451958
 30
13.946638137795787
 70
   192
  0
VERTEX
  8
0
 10
-57.688825169260362
 20
-90.799451939625172
 30
13.946767115395797
 70
   192
  0
VERTEX
  8
0
 10
-58.042059556243309
 20
-90.400596964141428
 30
13.950447065357213
 70
   192
  0
VERTEX
  8
0
 10
-58.164317028273892
 20
-91.218268971777633
 30
13.698715307014938
 70
   192
  0
VERTEX
  8
0
 10
-58.51755141525684
 20
-90.819413996293889
 30
13.702395256976354
 70
   192
  0
VERTEX
  8
0
 10
-57.688846995121558
 20
-90.797217814467103
 30
13.702524234576364
 70
   192
  0
VERTEX
  8
0
 10
-58.042081382104506
 20
-90.39836283898336
 30
13.70620418453778
 70
   192
  0
VERTEX
  8
0
 62
   151
 10
0
 20
0
 30
0
 70
   128
 71
     1
 72
     2
 73
     4
 74
     3
  0
VERTEX
  8
0
 62
   151
 10
0
 20
0
 30
0
 70
   128
 71
     1
 72
     2
 73
     6
 74
     5
  0
VERTEX
  8
0
 62
   151
 10
0
 20
0
 30
0
 70
   128
 71
     2
 72
     4
 73
     8
 74
     6
  0
VERTEX
  8
0
 62
   151
 10
0
 20
0
 30
0
 70
   128
 71
     3
 72
     4
 73
     8
 74
     7
  0
VERTEX
  8
0
 62
   151
 10
0
 20
0
 30
0
 70
   128
 71
     3
 72
     1
 73
     5
 74
     7
  0
VERTEX
  8
0
 62
   151
 10
0
 20
0
 30
0
 70
   128
 71
     5
 72
     6
 73
     8
 74
     7
  0
SEQEND
  8
0
  0
POLYLINE
  8
0
 62
   151
 66
     1
 10
0
 20
0
 30
0
 70
    64
 71
     8
 72
     6
  0
VERTEX
  8
0
 10
-26.320053790003961
 20
-124.6915628255732
 30
13.879488721797168
 70
   192
  0
VERTEX
  8
0
 10
-26.381836561864908
 20
-124.58529519447968
 30
13.879116553597649
 70
   192
  0
VERTEX
  8
0
 10
-26.222643627276142
 20
-124.63492722485442
 30
13.880190724796696
 70
   192
  0
VERTEX
  8
0
 10
-26.284426399137089
 20
-124.52865959376091
 30
13.879818556597177
 70
   192
  0
VERTEX
  8
0
 10
-26.267761584774508
 20
-124.68767213750709
 30
6.309515829640303
 70
   192
  0
VERTEX
  8
0
 10
-26.329544356635456
 20
-124.58140450641358
 30
6.309143661440785
 70
   192
  0
VERTEX
  8
0
 10
-26.170351422046689
 20
-124.63103653678832
 30
6.310217832639832
 70
   192
  0
VERTEX
  8
0
 10
-26.232134193907637
 20
-124.5247689056948
 30
6.309845664440313
 70
   192
  0
VERTEX
  8
0
 62
   151
 10
0
 20
0
 30
0
 70
   128
 71
     1
 72
     2
 73
     4
 74
     3
  0
VERTEX
  8
0
 62
   151
 10
0
 20
0
 30
0
 70
   128
 71
     1
 72
     2
 73
     6
 74
     5
  0
VERTEX
  8
0
 62
   151
 10
0
 20
0
 30
0
 70
   128
 71
     2
 72
     4
 73
     8
 74
     6
  0
VERTEX
  8
0
 62
   151
 10
0
 20
0
 30
0
 70
   128
 71
     3
 72
     4
 73
     8
 74
     7
  0
VERTEX
  8
0
 62
   151
 10
0
 20
0
 30
0
 70
   128
 71
     3
 72
     1
 73
     5
 74
     7
  0
VERTEX
  8
0
 62
   151
 10
0
 20
0
 30
0
 70
   128
 71
     5
 72
     6
 73
     8
 74
     7
  0
SEQEND
  8
0
  0
POLYLINE
  8
0
 62
   151
 66
     1
 10
0
 20
0
 30
0
 70
    64
 71
     8
 72
     6
  0
VERTEX
  8
0
 10
-26.367370833813602
 20
-124.82622527562364
 30
6.396404149919657
 70
   192
  0
VERTEX
  8
0
 10
-26.512442703255509
 20
-124.57669869338167
 30
6.395530263319478
 70
   192
  0
VERTEX
  8
0
 10
-26.036619771521522
 20
-124.63392208490185
 30
6.398787764024424
 70
   192
  0
VERTEX
  8
0
 10
-26.181691640963429
 20
-124.38439550265988
 30
6.397913877424245
 70
   192
  0
VERTEX
  8
0
 10
-26.366693532609304
 20
-124.82617488249714
 30
6.298356042484204
 70
   192
  0
VERTEX
  8
0
 10
-26.511765402051211
 20
-124.57664830025517
 30
6.297482155884025
 70
   192
  0
VERTEX
  8
0
 10
-26.035942470317224
 20
-124.63387169177535
 30
6.300739656588971
 70
   192
  0
VERTEX
  8
0
 10
-26.18101433975913
 20
-124.38434510953338
 30
6.299865769988792
 70
   192
  0
VERTEX
  8
0
 62
   151
 10
0
 20
0
 30
0
 70
   128
 71
     1
 72
     2
 73
     4
 74
     3
  0
VERTEX
  8
0
 62
   151
 10
0
 20
0
 30
0
 70
   128
 71
     1
 72
     2
 73
     6
 74
     5
  0
VERTEX
  8
0
 62
   151
 10
0
 20
0
 30
0
 70
   128
 71
     2
 72
     4
 73
     8
 74
     6
  0
VERTEX
  8
0
 62
   151
 10
0
 20
0
 30
0
 70
   128
 71
     3
 72
     4
 73
     8
 74
     7
  0
VERTEX
  8
0
 62
   151
 10
0
 20
0
 30
0
 70
   128
 71
     3
 72
     1
 73
     5
 74
     7
  0
VERTEX
  8
0
 62
   151
 10
0
 20
0
 30
0
 70
   128
 71
     5
 72
     6
 73
     8
 74
     7
  0
SEQEND
  8
0
  0
POLYLINE
  8
0
 62
   151
 66
     1
 10
0
 20
0
 30
0
 70
    64
 71
     8
 72
     6
  0
VERTEX
  8
0
 10
-26.409241419627918
 20
-124.74738552669315
 30
13.690210754981026
 70
   192
  0
VERTEX
  8
0
 10
-26.471024191488866
 20
-124.64111789559963
 30
13.689838586781507
 70
   192
  0
VERTEX
  8
0
 10
-26.311831256900099
 20
-124.69074992597437
 30
13.690912757980554
 70
   192
  0
VERTEX
  8
0
 10
-26.373614028761047
 20
-124.58448229488086
 30
13.690540589781035
 70
   192
  0
VERTEX
  8
0
 10
-26.408432867522677
 20
-124.74732536812816
 30
13.573162382442177
 70
   192
  0
VERTEX
  8
0
 10
-26.470215639383625
 20
-124.64105773703464
 30
13.572790214242659
 70
   192
  0
VERTEX
  8
0
 10
-26.311022704794858
 20
-124.69068976740938
 30
13.573864385441706
 70
   192
  0
VERTEX
  8
0
 10
-26.372805476655806
 20
-124.58442213631587
 30
13.573492217242187
 70
   192
  0
VERTEX
  8
0
 62
   151
 10
0
 20
0
 30
0
 70
   128
 71
     1
 72
     2
 73
     4
 74
     3
  0
VERTEX
  8
0
 62
   151
 10
0
 20
0
 30
0
 70
   128
 71
     1
 72
     2
 73
     6
 74
     5
  0
VERTEX
  8
0
 62
   151
 10
0
 20
0
 30
0
 70
   128
 71
     2
 72
     4
 73
     8
 74
     6
  0
VERTEX
  8
0
 62
   151
 10
0
 20
0
 30
0
 70
   128
 71
     3
 72
     4
 73
     8
 74
     7
  0
VERTEX
  8
0
 62
   151
 10
0
 20
0
 30
0
 70
   128
 71
     3
 72
     1
 73
     5
 74
     7
  0
VERTEX
  8
0
 62
   151
 10
0
 20
0
 30
0
 70
   128
 71
     5
 72
     6
 73
     8
 74
     7
  0
SEQEND
  8
0
  0
POLYLINE
  8
0
 62
   151
 66
     1
 10
0
 20
0
 30
0
 70
    64
 71
     8
 72
     6
  0
VERTEX
  8
0
 10
-26.708126631837867
 20
-125.13659376181059
 30
13.724975465754349
 70
   192
  0
VERTEX
  8
0
 10
-26.942818948446625
 20
-124.73291817765272
 30
13.723561721853217
 70
   192
  0
VERTEX
  8
0
 10
-26.312293557648655
 20
-124.9064509993587
 30
13.727828104510012
 70
   192
  0
VERTEX
  8
0
 10
-26.546985874257413
 20
-124.50277541520083
 30
13.72641436060888
 70
   192
  0
VERTEX
  8
0
 10
-26.706801147619448
 20
-125.13649514203335
 30
13.53309448543631
 70
   192
  0
VERTEX
  8
0
 10
-26.941493464228206
 20
-124.73281955787549
 30
13.531680741535178
 70
   192
  0
VERTEX
  8
0
 10
-26.310968073430235
 20
-124.90635237958146
 30
13.535947124191972
 70
   192
  0
VERTEX
  8
0
 10
-26.545660390038993
 20
-124.5026767954236
 30
13.53453338029084
 70
   192
  0
VERTEX
  8
0
 62
   151
 10
0
 20
0
 30
0
 70
   128
 71
     1
 72
     2
 73
     4
 74
     3
  0
VERTEX
  8
0
 62
   151
 10
0
 20
0
 30
0
 70
   128
 71
     1
 72
     2
 73
     6
 74
     5
  0
VERTEX
  8
0
 62
   151
 10
0
 20
0
 30
0
 70
   128
 71
     2
 72
     4
 73
     8
 74
     6
  0
VERTEX
  8
0
 62
   151
 10
0
 20
0
 30
0
 70
   128
 71
     3
 72
     4
 73
     8
 74
     7
  0
VERTEX
  8
0
 62
   151
 10
0
 20
0
 30
0
 70
   128
 71
     3
 72
     1
 73
     5
 74
     7
  0
VERTEX
  8
0
 62
   151
 10
0
 20
0
 30
0
 70
   128
 71
     5
 72
     6
 73
     8
 74
     7
  0
SEQEND
  8
0
  0
ENDSEC
  0
EOF
