  0
SECTION
  2
HEADER
  0
ENDSEC
  0
SECTION
  2
TABLES
  0
TABLE
  2
LAYER
 70
     1
  0
LAYER
  2
0
 70
     0
 62
   254
  6
CONTINUOUS
  0
ENDTAB
  0
ENDSEC
  0
SECTION
  2
BLOCKS
  0
ENDSEC
  0
SECTION
  2
ENTITIES
  0
POLYLINE
  8
0
 62
   151
 66
     1
 10
0
 20
0
 30
0
 70
    64
 71
     8
 72
     6
  0
VERTEX
  8
0
 10
-109.8610336859893
 20
43.162008164041019
 30
-0.346404794368445
 70
   192
  0
VERTEX
  8
0
 10
-109.59212176874408
 20
43.318335036608481
 30
-0.33854951700552
 70
   192
  0
VERTEX
  8
0
 10
-109.71437617131406
 20
42.909273009759424
 30
-0.33732264441266
 70
   192
  0
VERTEX
  8
0
 10
-109.44546425406884
 20
43.065599882326886
 30
-0.329467367049735
 70
   192
  0
VERTEX
  8
0
 10
-109.85719077737217
 20
43.160552001613134
 30
-0.448981262200257
 70
   192
  0
VERTEX
  8
0
 10
-109.58827886012695
 20
43.316878874180595
 30
-0.441125984837332
 70
   192
  0
VERTEX
  8
0
 10
-109.71053326269693
 20
42.907816847331539
 30
-0.439899112244473
 70
   192
  0
VERTEX
  8
0
 10
-109.44162134545171
 20
43.064143719899
 30
-0.432043834881548
 70
   192
  0
VERTEX
  8
0
 62
   151
 10
0
 20
0
 30
0
 70
   128
 71
     1
 72
     2
 73
     4
 74
     3
  0
VERTEX
  8
0
 62
   151
 10
0
 20
0
 30
0
 70
   128
 71
     1
 72
     2
 73
     6
 74
     5
  0
VERTEX
  8
0
 62
   151
 10
0
 20
0
 30
0
 70
   128
 71
     2
 72
     4
 73
     8
 74
     6
  0
VERTEX
  8
0
 62
   151
 10
0
 20
0
 30
0
 70
   128
 71
     3
 72
     4
 73
     8
 74
     7
  0
VERTEX
  8
0
 62
   151
 10
0
 20
0
 30
0
 70
   128
 71
     3
 72
     1
 73
     5
 74
     7
  0
VERTEX
  8
0
 62
   151
 10
0
 20
0
 30
0
 70
   128
 71
     5
 72
     6
 73
     8
 74
     7
  0
SEQEND
  8
0
  0
POLYLINE
  8
0
 62
   151
 66
     1
 10
0
 20
0
 30
0
 70
    64
 71
     8
 72
     6
  0
VERTEX
  8
0
 10
-109.74473918449935
 20
43.13491520038604
 30
-0.335864649425237
 70
   192
  0
VERTEX
  8
0
 10
-109.68127586448044
 20
43.02729680400352
 30
-0.337674190355441
 70
   192
  0
VERTEX
  8
0
 10
-109.6360062011132
 20
43.199065492309735
 30
-0.337630524404851
 70
   192
  0
VERTEX
  8
0
 10
-109.57254288109429
 20
43.091447095927215
 30
-0.339440065335055
 70
   192
  0
VERTEX
  8
0
 10
-109.59733510687347
 20
43.094136099105079
 30
7.259063659100423
 70
   192
  0
VERTEX
  8
0
 10
-109.53387178685456
 20
42.986517702722558
 30
7.25725411817022
 70
   192
  0
VERTEX
  8
0
 10
-109.48860212348733
 20
43.158286391028774
 30
7.25729778412081
 70
   192
  0
VERTEX
  8
0
 10
-109.42513880346841
 20
43.050667994646254
 30
7.255488243190606
 70
   192
  0
VERTEX
  8
0
 62
   151
 10
0
 20
0
 30
0
 70
   128
 71
     1
 72
     2
 73
     4
 74
     3
  0
VERTEX
  8
0
 62
   151
 10
0
 20
0
 30
0
 70
   128
 71
     1
 72
     2
 73
     6
 74
     5
  0
VERTEX
  8
0
 62
   151
 10
0
 20
0
 30
0
 70
   128
 71
     2
 72
     4
 73
     8
 74
     6
  0
VERTEX
  8
0
 62
   151
 10
0
 20
0
 30
0
 70
   128
 71
     3
 72
     4
 73
     8
 74
     7
  0
VERTEX
  8
0
 62
   151
 10
0
 20
0
 30
0
 70
   128
 71
     3
 72
     1
 73
     5
 74
     7
  0
VERTEX
  8
0
 62
   151
 10
0
 20
0
 30
0
 70
   128
 71
     5
 72
     6
 73
     8
 74
     7
  0
SEQEND
  8
0
  0
POLYLINE
  8
0
 62
   151
 66
     1
 10
0
 20
0
 30
0
 70
    64
 71
     8
 72
     6
  0
VERTEX
  8
0
 10
-110.07762551877049
 20
43.626159602985346
 30
7.018576965294381
 70
   192
  0
VERTEX
  8
0
 10
-109.78450488002319
 20
43.116624139441861
 30
7.005183844531493
 70
   192
  0
VERTEX
  8
0
 10
-109.71904810949316
 20
43.832981825402335
 30
6.99790831550713
 70
   192
  0
VERTEX
  8
0
 10
-109.42592747074586
 20
43.323446361858849
 30
6.984515194744242
 70
   192
  0
VERTEX
  8
0
 10
-110.06806950257837
 20
43.627061895409369
 30
7.193391754396745
 70
   192
  0
VERTEX
  8
0
 10
-109.77494886383107
 20
43.117526431865883
 30
7.179998633633857
 70
   192
  0
VERTEX
  8
0
 10
-109.70949209330104
 20
43.833884117826358
 30
7.172723104609495
 70
   192
  0
VERTEX
  8
0
 10
-109.41637145455374
 20
43.324348654282872
 30
7.159329983846607
 70
   192
  0
VERTEX
  8
0
 62
   151
 10
0
 20
0
 30
0
 70
   128
 71
     1
 72
     2
 73
     4
 74
     3
  0
VERTEX
  8
0
 62
   151
 10
0
 20
0
 30
0
 70
   128
 71
     1
 72
     2
 73
     6
 74
     5
  0
VERTEX
  8
0
 62
   151
 10
0
 20
0
 30
0
 70
   128
 71
     2
 72
     4
 73
     8
 74
     6
  0
VERTEX
  8
0
 62
   151
 10
0
 20
0
 30
0
 70
   128
 71
     3
 72
     4
 73
     8
 74
     7
  0
VERTEX
  8
0
 62
   151
 10
0
 20
0
 30
0
 70
   128
 71
     3
 72
     1
 73
     5
 74
     7
  0
VERTEX
  8
0
 62
   151
 10
0
 20
0
 30
0
 70
   128
 71
     5
 72
     6
 73
     8
 74
     7
  0
SEQEND
  8
0
  0
POLYLINE
  8
0
 62
   151
 66
     1
 10
0
 20
0
 30
0
 70
    64
 71
     8
 72
     6
  0
VERTEX
  8
0
 10
-109.65687518598307
 20
43.202291000884017
 30
7.042495444274795
 70
   192
  0
VERTEX
  8
0
 10
-109.59645327368321
 20
43.097258795634104
 30
7.039734676654967
 70
   192
  0
VERTEX
  8
0
 10
-109.56079544017851
 20
43.257708397636947
 30
7.036957341298133
 70
   192
  0
VERTEX
  8
0
 10
-109.50037352787865
 20
43.152676192387034
 30
7.034196573678305
 70
   192
  0
VERTEX
  8
0
 10
-109.64997375851553
 20
43.202942643325144
 30
7.168748012603285
 70
   192
  0
VERTEX
  8
0
 10
-109.58955184621567
 20
43.097910438075232
 30
7.165987244983457
 70
   192
  0
VERTEX
  8
0
 10
-109.55389401271097
 20
43.258360040078074
 30
7.163209909626623
 70
   192
  0
VERTEX
  8
0
 10
-109.49347210041111
 20
43.153327834828161
 30
7.160449142006796
 70
   192
  0
VERTEX
  8
0
 62
   151
 10
0
 20
0
 30
0
 70
   128
 71
     1
 72
     2
 73
     4
 74
     3
  0
VERTEX
  8
0
 62
   151
 10
0
 20
0
 30
0
 70
   128
 71
     1
 72
     2
 73
     6
 74
     5
  0
VERTEX
  8
0
 62
   151
 10
0
 20
0
 30
0
 70
   128
 71
     2
 72
     4
 73
     8
 74
     6
  0
VERTEX
  8
0
 62
   151
 10
0
 20
0
 30
0
 70
   128
 71
     3
 72
     4
 73
     8
 74
     7
  0
VERTEX
  8
0
 62
   151
 10
0
 20
0
 30
0
 70
   128
 71
     3
 72
     1
 73
     5
 74
     7
  0
VERTEX
  8
0
 62
   151
 10
0
 20
0
 30
0
 70
   128
 71
     5
 72
     6
 73
     8
 74
     7
  0
SEQEND
  8
0
  0
CIRCLE
  8
0
 62
     9
 10
-124.45953159819622
 20
56.91282864949914
 30
-0.956068849040424
 39
0.30153094643586
 40
0.305253822323822
210
-0.007406822622008
220
0.005005308368071
230
0.999960042135078
  0
POLYLINE
  8
0
 62
   151
 66
     1
 10
0
 20
0
 30
0
 70
    64
 71
     8
 72
     6
  0
VERTEX
  8
0
 10
-124.42709267653603
 20
56.718760293492643
 30
-1.737201604328052
 70
   192
  0
VERTEX
  8
0
 10
-124.67759071750109
 20
56.884165433265359
 30
-1.751900436322011
 70
   192
  0
VERTEX
  8
0
 10
-124.26768845235139
 20
56.95947025096293
 30
-1.745078537665338
 70
   192
  0
VERTEX
  8
0
 10
-124.51818649331645
 20
57.124875390735646
 30
-1.759777369659297
 70
   192
  0
VERTEX
  8
0
 10
-124.4251155567472
 20
56.714942558343161
 30
-1.813856514754651
 70
   192
  0
VERTEX
  8
0
 10
-124.67561359771226
 20
56.880347698115877
 30
-1.82855534674861
 70
   192
  0
VERTEX
  8
0
 10
-124.26571133256256
 20
56.955652515813448
 30
-1.821733448091937
 70
   192
  0
VERTEX
  8
0
 10
-124.51620937352762
 20
57.121057655586164
 30
-1.836432280085896
 70
   192
  0
VERTEX
  8
0
 62
   151
 10
0
 20
0
 30
0
 70
   128
 71
     1
 72
     2
 73
     4
 74
     3
  0
VERTEX
  8
0
 62
   151
 10
0
 20
0
 30
0
 70
   128
 71
     1
 72
     2
 73
     6
 74
     5
  0
VERTEX
  8
0
 62
   151
 10
0
 20
0
 30
0
 70
   128
 71
     2
 72
     4
 73
     8
 74
     6
  0
VERTEX
  8
0
 62
   151
 10
0
 20
0
 30
0
 70
   128
 71
     3
 72
     4
 73
     8
 74
     7
  0
VERTEX
  8
0
 62
   151
 10
0
 20
0
 30
0
 70
   128
 71
     3
 72
     1
 73
     5
 74
     7
  0
VERTEX
  8
0
 62
   151
 10
0
 20
0
 30
0
 70
   128
 71
     5
 72
     6
 73
     8
 74
     7
  0
SEQEND
  8
0
  0
POLYLINE
  8
0
 62
   151
 66
     1
 10
0
 20
0
 30
0
 70
    64
 71
     8
 72
     6
  0
VERTEX
  8
0
 10
-124.46023775780282
 20
56.817052122903
 30
-1.760938807598138
 70
   192
  0
VERTEX
  8
0
 10
-124.37090692858612
 20
56.954444128676492
 30
-1.759476881609407
 70
   192
  0
VERTEX
  8
0
 10
-124.56946250192769
 20
56.888088445201966
 30
-1.7627760003105
 70
   192
  0
VERTEX
  8
0
 10
-124.480131672711
 20
57.025480450975458
 30
-1.761314074321769
 70
   192
  0
VERTEX
  8
0
 10
-124.61167450022589
 20
56.818939190076101
 30
7.315240104922673
 70
   192
  0
VERTEX
  8
0
 10
-124.5223436710092
 20
56.956331195849593
 30
7.316702030911404
 70
   192
  0
VERTEX
  8
0
 10
-124.72089924435076
 20
56.889975512375067
 30
7.313402912210312
 70
   192
  0
VERTEX
  8
0
 10
-124.63156841513407
 20
57.027367518148559
 30
7.314864838199043
 70
   192
  0
VERTEX
  8
0
 62
   151
 10
0
 20
0
 30
0
 70
   128
 71
     1
 72
     2
 73
     4
 74
     3
  0
VERTEX
  8
0
 62
   151
 10
0
 20
0
 30
0
 70
   128
 71
     1
 72
     2
 73
     6
 74
     5
  0
VERTEX
  8
0
 62
   151
 10
0
 20
0
 30
0
 70
   128
 71
     2
 72
     4
 73
     8
 74
     6
  0
VERTEX
  8
0
 62
   151
 10
0
 20
0
 30
0
 70
   128
 71
     3
 72
     4
 73
     8
 74
     7
  0
VERTEX
  8
0
 62
   151
 10
0
 20
0
 30
0
 70
   128
 71
     3
 72
     1
 73
     5
 74
     7
  0
VERTEX
  8
0
 62
   151
 10
0
 20
0
 30
0
 70
   128
 71
     5
 72
     6
 73
     8
 74
     7
  0
SEQEND
  8
0
  0
POLYLINE
  8
0
 62
   151
 66
     1
 10
0
 20
0
 30
0
 70
    64
 71
     8
 72
     6
  0
VERTEX
  8
0
 10
-124.71216308720386
 20
56.897767143169084
 30
7.081844048950654
 70
   192
  0
VERTEX
  8
0
 10
-124.63760791043256
 20
57.012433998578622
 30
7.083064166926409
 70
   192
  0
VERTEX
  8
0
 10
-124.84563332077749
 20
56.984571965697363
 30
7.079599039887887
 70
   192
  0
VERTEX
  8
0
 10
-124.7710781440062
 20
57.099238821106901
 30
7.080819157863642
 70
   192
  0
VERTEX
  8
0
 10
-124.71515450109902
 20
56.897804419452711
 30
7.261130840778596
 70
   192
  0
VERTEX
  8
0
 10
-124.64059932432772
 20
57.01247127486225
 30
7.262350958754351
 70
   192
  0
VERTEX
  8
0
 10
-124.84862473467265
 20
56.984609241980991
 30
7.258885831715829
 70
   192
  0
VERTEX
  8
0
 10
-124.77406955790136
 20
57.099276097390529
 30
7.260105949691584
 70
   192
  0
VERTEX
  8
0
 62
   151
 10
0
 20
0
 30
0
 70
   128
 71
     1
 72
     2
 73
     4
 74
     3
  0
VERTEX
  8
0
 62
   151
 10
0
 20
0
 30
0
 70
   128
 71
     1
 72
     2
 73
     6
 74
     5
  0
VERTEX
  8
0
 62
   151
 10
0
 20
0
 30
0
 70
   128
 71
     2
 72
     4
 73
     8
 74
     6
  0
VERTEX
  8
0
 62
   151
 10
0
 20
0
 30
0
 70
   128
 71
     3
 72
     4
 73
     8
 74
     7
  0
VERTEX
  8
0
 62
   151
 10
0
 20
0
 30
0
 70
   128
 71
     3
 72
     1
 73
     5
 74
     7
  0
VERTEX
  8
0
 62
   151
 10
0
 20
0
 30
0
 70
   128
 71
     5
 72
     6
 73
     8
 74
     7
  0
SEQEND
  8
0
  0
POLYLINE
  8
0
 62
   151
 66
     1
 10
0
 20
0
 30
0
 70
    64
 71
     8
 72
     6
  0
VERTEX
  8
0
 10
-124.90695268962578
 20
56.868525700442952
 30
7.036061193841959
 70
   192
  0
VERTEX
  8
0
 10
-124.68256396176282
 20
57.213638554139543
 30
7.039733383115444
 70
   192
  0
VERTEX
  8
0
 10
-125.35899440217331
 20
57.16251934668481
 30
7.028457717664195
 70
   192
  0
VERTEX
  8
0
 10
-125.13460567431035
 20
57.507632200381401
 30
7.032129906937681
 70
   192
  0
VERTEX
  8
0
 10
-124.91080998089861
 20
56.868573766504213
 30
7.267243304271026
 70
   192
  0
VERTEX
  8
0
 10
-124.68642125303565
 20
57.213686620200804
 30
7.270915493544512
 70
   192
  0
VERTEX
  8
0
 10
-125.36285169344613
 20
57.162567412746071
 30
7.259639828093262
 70
   192
  0
VERTEX
  8
0
 10
-125.13846296558317
 20
57.507680266442662
 30
7.263312017366748
 70
   192
  0
VERTEX
  8
0
 62
   151
 10
0
 20
0
 30
0
 70
   128
 71
     1
 72
     2
 73
     4
 74
     3
  0
VERTEX
  8
0
 62
   151
 10
0
 20
0
 30
0
 70
   128
 71
     1
 72
     2
 73
     6
 74
     5
  0
VERTEX
  8
0
 62
   151
 10
0
 20
0
 30
0
 70
   128
 71
     2
 72
     4
 73
     8
 74
     6
  0
VERTEX
  8
0
 62
   151
 10
0
 20
0
 30
0
 70
   128
 71
     3
 72
     4
 73
     8
 74
     7
  0
VERTEX
  8
0
 62
   151
 10
0
 20
0
 30
0
 70
   128
 71
     3
 72
     1
 73
     5
 74
     7
  0
VERTEX
  8
0
 62
   151
 10
0
 20
0
 30
0
 70
   128
 71
     5
 72
     6
 73
     8
 74
     7
  0
SEQEND
  8
0
  0
POLYLINE
  8
0
 62
   151
 66
     1
 10
0
 20
0
 30
0
 70
    64
 71
     8
 72
     6
  0
VERTEX
  8
0
 10
-142.40079035034654
 20
91.664573255531621
 30
-3.219104299378728
 70
   192
  0
VERTEX
  8
0
 10
-142.64002448520102
 20
91.823519342705453
 30
-3.22126099205896
 70
   192
  0
VERTEX
  8
0
 10
-142.22768902049694
 20
91.924981050689013
 30
-3.228816753590918
 70
   192
  0
VERTEX
  8
0
 10
-142.46692315535142
 20
92.083927137862844
 30
-3.23097344627115
 70
   192
  0
VERTEX
  8
0
 10
-142.4016559053959
 20
91.662196504178581
 30
-3.298255592428799
 70
   192
  0
VERTEX
  8
0
 10
-142.64089004025038
 20
91.821142591352412
 30
-3.300412285109031
 70
   192
  0
VERTEX
  8
0
 10
-142.2285545755463
 20
91.922604299335973
 30
-3.307968046640989
 70
   192
  0
VERTEX
  8
0
 10
-142.46778871040078
 20
92.081550386509804
 30
-3.310124739321221
 70
   192
  0
VERTEX
  8
0
 62
   151
 10
0
 20
0
 30
0
 70
   128
 71
     1
 72
     2
 73
     4
 74
     3
  0
VERTEX
  8
0
 62
   151
 10
0
 20
0
 30
0
 70
   128
 71
     1
 72
     2
 73
     6
 74
     5
  0
VERTEX
  8
0
 62
   151
 10
0
 20
0
 30
0
 70
   128
 71
     2
 72
     4
 73
     8
 74
     6
  0
VERTEX
  8
0
 62
   151
 10
0
 20
0
 30
0
 70
   128
 71
     3
 72
     4
 73
     8
 74
     7
  0
VERTEX
  8
0
 62
   151
 10
0
 20
0
 30
0
 70
   128
 71
     3
 72
     1
 73
     5
 74
     7
  0
VERTEX
  8
0
 62
   151
 10
0
 20
0
 30
0
 70
   128
 71
     5
 72
     6
 73
     8
 74
     7
  0
SEQEND
  8
0
  0
CIRCLE
  8
0
 62
     9
 10
-169.08950753771762
 20
-11.744152490489087
 30
-2.878180850461189
 39
0.195923889203005
 40
0.31184080701509
210
-0.031633597705891
220
-0.042376633235504
230
0.998600789330654
  0
POLYLINE
  8
0
 62
   151
 66
     1
 10
0
 20
0
 30
0
 70
    64
 71
     8
 72
     6
  0
VERTEX
  8
0
 10
-142.54256140836918
 20
91.858348008884064
 30
-3.208034309366389
 70
   192
  0
VERTEX
  8
0
 10
-142.42795163619701
 20
91.764417903305258
 30
-3.207910137808134
 70
   192
  0
VERTEX
  8
0
 10
-142.45112833960013
 20
91.969907108101069
 30
-3.210975505355954
 70
   192
  0
VERTEX
  8
0
 10
-142.33651856742796
 20
91.875977002522262
 30
-3.210851333797699
 70
   192
  0
VERTEX
  8
0
 10
-142.43143555909404
 20
92.005904880200845
 30
5.843347904068017
 70
   192
  0
VERTEX
  8
0
 10
-142.31682578692187
 20
91.911974774622038
 30
5.843472075626272
 70
   192
  0
VERTEX
  8
0
 10
-142.34000249032499
 20
92.117463979417849
 30
5.840406708078453
 70
   192
  0
VERTEX
  8
0
 10
-142.22539271815282
 20
92.023533873839042
 30
5.840530879636708
 70
   192
  0
VERTEX
  8
0
 62
   151
 10
0
 20
0
 30
0
 70
   128
 71
     1
 72
     2
 73
     4
 74
     3
  0
VERTEX
  8
0
 62
   151
 10
0
 20
0
 30
0
 70
   128
 71
     1
 72
     2
 73
     6
 74
     5
  0
VERTEX
  8
0
 62
   151
 10
0
 20
0
 30
0
 70
   128
 71
     2
 72
     4
 73
     8
 74
     6
  0
VERTEX
  8
0
 62
   151
 10
0
 20
0
 30
0
 70
   128
 71
     3
 72
     4
 73
     8
 74
     7
  0
VERTEX
  8
0
 62
   151
 10
0
 20
0
 30
0
 70
   128
 71
     3
 72
     1
 73
     5
 74
     7
  0
VERTEX
  8
0
 62
   151
 10
0
 20
0
 30
0
 70
   128
 71
     5
 72
     6
 73
     8
 74
     7
  0
SEQEND
  8
0
  0
POLYLINE
  8
0
 62
   151
 66
     1
 10
0
 20
0
 30
0
 70
    64
 71
     8
 72
     6
  0
VERTEX
  8
0
 10
-142.98486905917102
 20
91.493537562478437
 30
5.587790169874474
 70
   192
  0
VERTEX
  8
0
 10
-142.69205744714966
 20
91.253559547422626
 30
5.588107410485382
 70
   192
  0
VERTEX
  8
0
 10
-142.61249860355471
 20
91.947873320458044
 30
5.575811850592007
 70
   192
  0
VERTEX
  8
0
 10
-142.31968699153336
 20
91.707895305402232
 30
5.576129091202915
 70
   192
  0
VERTEX
  8
0
 10
-142.98210871303942
 20
91.497202848652492
 30
5.812624877922808
 70
   192
  0
VERTEX
  8
0
 10
-142.68929710101807
 20
91.25722483359668
 30
5.812942118533716
 70
   192
  0
VERTEX
  8
0
 10
-142.60973825742312
 20
91.951538606632099
 30
5.800646558640342
 70
   192
  0
VERTEX
  8
0
 10
-142.31692664540176
 20
91.711560591576287
 30
5.80096379925125
 70
   192
  0
VERTEX
  8
0
 62
   151
 10
0
 20
0
 30
0
 70
   128
 71
     1
 72
     2
 73
     4
 74
     3
  0
VERTEX
  8
0
 62
   151
 10
0
 20
0
 30
0
 70
   128
 71
     1
 72
     2
 73
     6
 74
     5
  0
VERTEX
  8
0
 62
   151
 10
0
 20
0
 30
0
 70
   128
 71
     2
 72
     4
 73
     8
 74
     6
  0
VERTEX
  8
0
 62
   151
 10
0
 20
0
 30
0
 70
   128
 71
     3
 72
     4
 73
     8
 74
     7
  0
VERTEX
  8
0
 62
   151
 10
0
 20
0
 30
0
 70
   128
 71
     3
 72
     1
 73
     5
 74
     7
  0
VERTEX
  8
0
 62
   151
 10
0
 20
0
 30
0
 70
   128
 71
     5
 72
     6
 73
     8
 74
     7
  0
SEQEND
  8
0
  0
POLYLINE
  8
0
 62
   151
 66
     1
 10
0
 20
0
 30
0
 70
    64
 71
     8
 72
     6
  0
VERTEX
  8
0
 10
-142.52126067470684
 20
91.87663436327253
 30
5.636391615495026
 70
   192
  0
VERTEX
  8
0
 10
-142.42513320343679
 20
91.797851696190207
 30
5.636495762791303
 70
   192
  0
VERTEX
  8
0
 10
-142.42128678361584
 20
91.998614270383655
 30
5.633175680478334
 70
   192
  0
VERTEX
  8
0
 10
-142.32515931234579
 20
91.919831603301333
 30
5.633279827774611
 70
   192
  0
VERTEX
  8
0
 10
-142.51943187505876
 20
91.87906270875736
 30
5.785350338550586
 70
   192
  0
VERTEX
  8
0
 10
-142.42330440378871
 20
91.800280041675038
 30
5.785454485846863
 70
   192
  0
VERTEX
  8
0
 10
-142.41945798396776
 20
92.001042615868485
 30
5.782134403533894
 70
   192
  0
VERTEX
  8
0
 10
-142.32333051269771
 20
91.922259948786163
 30
5.78223855083017
 70
   192
  0
VERTEX
  8
0
 62
   151
 10
0
 20
0
 30
0
 70
   128
 71
     1
 72
     2
 73
     4
 74
     3
  0
VERTEX
  8
0
 62
   151
 10
0
 20
0
 30
0
 70
   128
 71
     1
 72
     2
 73
     6
 74
     5
  0
VERTEX
  8
0
 62
   151
 10
0
 20
0
 30
0
 70
   128
 71
     2
 72
     4
 73
     8
 74
     6
  0
VERTEX
  8
0
 62
   151
 10
0
 20
0
 30
0
 70
   128
 71
     3
 72
     4
 73
     8
 74
     7
  0
VERTEX
  8
0
 62
   151
 10
0
 20
0
 30
0
 70
   128
 71
     3
 72
     1
 73
     5
 74
     7
  0
VERTEX
  8
0
 62
   151
 10
0
 20
0
 30
0
 70
   128
 71
     5
 72
     6
 73
     8
 74
     7
  0
SEQEND
  8
0
  0
POLYLINE
  8
0
 62
   151
 66
     1
 10
0
 20
0
 30
0
 70
    64
 71
     8
 72
     6
  0
VERTEX
  8
0
 10
-142.33599195047006
 20
92.107551864253551
 30
5.634546470768989
 70
   192
  0
VERTEX
  8
0
 10
-142.23986447920001
 20
92.028769197171229
 30
5.634650618065265
 70
   192
  0
VERTEX
  8
0
 10
-142.23601805937906
 20
92.229531771364677
 30
5.631330535752296
 70
   192
  0
VERTEX
  8
0
 10
-142.13989058810901
 20
92.150749104282355
 30
5.631434683048573
 70
   192
  0
VERTEX
  8
0
 10
-142.33416315082198
 20
92.109980209738382
 30
5.783505193824548
 70
   192
  0
VERTEX
  8
0
 10
-142.23803567955193
 20
92.031197542656059
 30
5.783609341120825
 70
   192
  0
VERTEX
  8
0
 10
-142.23418925973098
 20
92.231960116849507
 30
5.780289258807856
 70
   192
  0
VERTEX
  8
0
 10
-142.13806178846093
 20
92.153177449767185
 30
5.780393406104133
 70
   192
  0
VERTEX
  8
0
 62
   151
 10
0
 20
0
 30
0
 70
   128
 71
     1
 72
     2
 73
     4
 74
     3
  0
VERTEX
  8
0
 62
   151
 10
0
 20
0
 30
0
 70
   128
 71
     1
 72
     2
 73
     6
 74
     5
  0
VERTEX
  8
0
 62
   151
 10
0
 20
0
 30
0
 70
   128
 71
     2
 72
     4
 73
     8
 74
     6
  0
VERTEX
  8
0
 62
   151
 10
0
 20
0
 30
0
 70
   128
 71
     3
 72
     4
 73
     8
 74
     7
  0
VERTEX
  8
0
 62
   151
 10
0
 20
0
 30
0
 70
   128
 71
     3
 72
     1
 73
     5
 74
     7
  0
VERTEX
  8
0
 62
   151
 10
0
 20
0
 30
0
 70
   128
 71
     5
 72
     6
 73
     8
 74
     7
  0
SEQEND
  8
0
  0
POLYLINE
  8
0
 62
   151
 66
     1
 10
0
 20
0
 30
0
 70
    64
 71
     8
 72
     6
  0
VERTEX
  8
0
 10
-142.33813924093405
 20
92.310864584854784
 30
5.575761802708171
 70
   192
  0
VERTEX
  8
0
 10
-142.0453276289127
 20
92.070886569798972
 30
5.576079043319079
 70
   192
  0
VERTEX
  8
0
 10
-141.96576878531775
 20
92.76520034283439
 30
5.563783483425705
 70
   192
  0
VERTEX
  8
0
 10
-141.6729571732964
 20
92.525222327778579
 30
5.564100724036613
 70
   192
  0
VERTEX
  8
0
 10
-142.33537889480246
 20
92.314529871028839
 30
5.800596510756505
 70
   192
  0
VERTEX
  8
0
 10
-142.04256728278111
 20
92.074551855973027
 30
5.800913751367413
 70
   192
  0
VERTEX
  8
0
 10
-141.96300843918615
 20
92.768865629008445
 30
5.788618191474039
 70
   192
  0
VERTEX
  8
0
 10
-141.6701968271648
 20
92.528887613952634
 30
5.788935432084947
 70
   192
  0
VERTEX
  8
0
 62
   151
 10
0
 20
0
 30
0
 70
   128
 71
     1
 72
     2
 73
     4
 74
     3
  0
VERTEX
  8
0
 62
   151
 10
0
 20
0
 30
0
 70
   128
 71
     1
 72
     2
 73
     6
 74
     5
  0
VERTEX
  8
0
 62
   151
 10
0
 20
0
 30
0
 70
   128
 71
     2
 72
     4
 73
     8
 74
     6
  0
VERTEX
  8
0
 62
   151
 10
0
 20
0
 30
0
 70
   128
 71
     3
 72
     4
 73
     8
 74
     7
  0
VERTEX
  8
0
 62
   151
 10
0
 20
0
 30
0
 70
   128
 71
     3
 72
     1
 73
     5
 74
     7
  0
VERTEX
  8
0
 62
   151
 10
0
 20
0
 30
0
 70
   128
 71
     5
 72
     6
 73
     8
 74
     7
  0
SEQEND
  8
0
  0
POLYLINE
  8
0
 62
   151
 66
     1
 10
0
 20
0
 30
0
 70
    64
 71
     8
 72
     6
  0
VERTEX
  8
0
 10
-113.75219122757754
 20
74.84749328816828
 30
-2.782949493032623
 70
   192
  0
VERTEX
  8
0
 10
-113.89367934858596
 20
74.544444109627662
 30
-2.778259817027133
 70
   192
  0
VERTEX
  8
0
 10
-114.00853612487465
 20
74.967461705427283
 30
-2.764489272668151
 70
   192
  0
VERTEX
  8
0
 10
-114.15002424588307
 20
74.664412526886665
 30
-2.759799596662661
 70
   192
  0
VERTEX
  8
0
 10
-113.75676413905444
 20
74.848540322829237
 30
-2.853254916714585
 70
   192
  0
VERTEX
  8
0
 10
-113.89825226006286
 20
74.545491144288619
 30
-2.848565240709095
 70
   192
  0
VERTEX
  8
0
 10
-114.01310903635155
 20
74.96850874008824
 30
-2.834794696350112
 70
   192
  0
VERTEX
  8
0
 10
-114.15459715735997
 20
74.665459561547621
 30
-2.830105020344623
 70
   192
  0
VERTEX
  8
0
 62
   151
 10
0
 20
0
 30
0
 70
   128
 71
     1
 72
     2
 73
     4
 74
     3
  0
VERTEX
  8
0
 62
   151
 10
0
 20
0
 30
0
 70
   128
 71
     1
 72
     2
 73
     6
 74
     5
  0
VERTEX
  8
0
 62
   151
 10
0
 20
0
 30
0
 70
   128
 71
     2
 72
     4
 73
     8
 74
     6
  0
VERTEX
  8
0
 62
   151
 10
0
 20
0
 30
0
 70
   128
 71
     3
 72
     4
 73
     8
 74
     7
  0
VERTEX
  8
0
 62
   151
 10
0
 20
0
 30
0
 70
   128
 71
     3
 72
     1
 73
     5
 74
     7
  0
VERTEX
  8
0
 62
   151
 10
0
 20
0
 30
0
 70
   128
 71
     5
 72
     6
 73
     8
 74
     7
  0
SEQEND
  8
0
  0
POLYLINE
  8
0
 62
   151
 66
     1
 10
0
 20
0
 30
0
 70
    64
 71
     8
 72
     6
  0
VERTEX
  8
0
 10
-113.99507641792387
 20
74.758080137996942
 30
6.276182343474617
 70
   192
  0
VERTEX
  8
0
 10
-113.93894441535001
 20
74.879499268077112
 30
6.275056440461243
 70
   192
  0
VERTEX
  8
0
 10
-113.87138916349006
 20
74.700894696196158
 30
6.275655377596791
 70
   192
  0
VERTEX
  8
0
 10
-113.8152571609162
 20
74.822313826276329
 30
6.274529474583416
 70
   192
  0
VERTEX
  8
0
 10
-114.05851306559452
 20
74.703879011741392
 30
-2.731591460452854
 70
   192
  0
VERTEX
  8
0
 10
-114.00238106302066
 20
74.825298141821563
 30
-2.732717363466228
 70
   192
  0
VERTEX
  8
0
 10
-113.93482581116072
 20
74.646693569940609
 30
-2.73211842633068
 70
   192
  0
VERTEX
  8
0
 10
-113.87869380858686
 20
74.768112700020779
 30
-2.733244329344054
 70
   192
  0
VERTEX
  8
0
 62
   151
 10
0
 20
0
 30
0
 70
   128
 71
     1
 72
     2
 73
     4
 74
     3
  0
VERTEX
  8
0
 62
   151
 10
0
 20
0
 30
0
 70
   128
 71
     1
 72
     2
 73
     6
 74
     5
  0
VERTEX
  8
0
 62
   151
 10
0
 20
0
 30
0
 70
   128
 71
     2
 72
     4
 73
     8
 74
     6
  0
VERTEX
  8
0
 62
   151
 10
0
 20
0
 30
0
 70
   128
 71
     3
 72
     4
 73
     8
 74
     7
  0
VERTEX
  8
0
 62
   151
 10
0
 20
0
 30
0
 70
   128
 71
     3
 72
     1
 73
     5
 74
     7
  0
VERTEX
  8
0
 62
   151
 10
0
 20
0
 30
0
 70
   128
 71
     5
 72
     6
 73
     8
 74
     7
  0
SEQEND
  8
0
  0
POLYLINE
  8
0
 62
   151
 66
     1
 10
0
 20
0
 30
0
 70
    64
 71
     8
 72
     6
  0
VERTEX
  8
0
 10
-113.93262550325932
 20
74.877912953898061
 30
6.226141487657986
 70
   192
  0
VERTEX
  8
0
 10
-113.87649350068546
 20
74.999332083978231
 30
6.225015584644612
 70
   192
  0
VERTEX
  8
0
 10
-113.82278040840956
 20
74.82712728234776
 30
6.225673495890384
 70
   192
  0
VERTEX
  8
0
 10
-113.7666484058357
 20
74.94854641242793
 30
6.22454759287701
 70
   192
  0
VERTEX
  8
0
 10
-113.93344466967544
 20
74.87721304707803
 30
6.109822828725927
 70
   192
  0
VERTEX
  8
0
 10
-113.87731266710158
 20
74.9986321771582
 30
6.108696925712553
 70
   192
  0
VERTEX
  8
0
 10
-113.82359957482568
 20
74.826427375527729
 30
6.109354836958326
 70
   192
  0
VERTEX
  8
0
 10
-113.76746757225182
 20
74.947846505607899
 30
6.108228933944951
 70
   192
  0
VERTEX
  8
0
 62
   151
 10
0
 20
0
 30
0
 70
   128
 71
     1
 72
     2
 73
     4
 74
     3
  0
VERTEX
  8
0
 62
   151
 10
0
 20
0
 30
0
 70
   128
 71
     1
 72
     2
 73
     6
 74
     5
  0
VERTEX
  8
0
 62
   151
 10
0
 20
0
 30
0
 70
   128
 71
     2
 72
     4
 73
     8
 74
     6
  0
VERTEX
  8
0
 62
   151
 10
0
 20
0
 30
0
 70
   128
 71
     3
 72
     4
 73
     8
 74
     7
  0
VERTEX
  8
0
 62
   151
 10
0
 20
0
 30
0
 70
   128
 71
     3
 72
     1
 73
     5
 74
     7
  0
VERTEX
  8
0
 62
   151
 10
0
 20
0
 30
0
 70
   128
 71
     5
 72
     6
 73
     8
 74
     7
  0
SEQEND
  8
0
  0
POLYLINE
  8
0
 62
   151
 66
     1
 10
0
 20
0
 30
0
 70
    64
 71
     8
 72
     6
  0
VERTEX
  8
0
 10
-114.5088463518989
 20
74.045802443251077
 30
6.276436539614656
 70
   192
  0
VERTEX
  8
0
 10
-114.20348268329592
 20
74.70633456930652
 30
6.270311515405822
 70
   192
  0
VERTEX
  8
0
 10
-114.10893446938725
 20
73.860907582519459
 30
6.274732726904241
 70
   192
  0
VERTEX
  8
0
 10
-113.80357080078427
 20
74.521439708574903
 30
6.268607702695406
 70
   192
  0
VERTEX
  8
0
 10
-114.51072085621405
 20
74.044200841514808
 30
6.010263728071767
 70
   192
  0
VERTEX
  8
0
 10
-114.20535718761107
 20
74.704732967570251
 30
6.004138703862932
 70
   192
  0
VERTEX
  8
0
 10
-114.1108089737024
 20
73.859305980783191
 30
6.008559915361351
 70
   192
  0
VERTEX
  8
0
 10
-113.80544530509943
 20
74.519838106838634
 30
6.002434891152516
 70
   192
  0
VERTEX
  8
0
 62
   151
 10
0
 20
0
 30
0
 70
   128
 71
     1
 72
     2
 73
     4
 74
     3
  0
VERTEX
  8
0
 62
   151
 10
0
 20
0
 30
0
 70
   128
 71
     1
 72
     2
 73
     6
 74
     5
  0
VERTEX
  8
0
 62
   151
 10
0
 20
0
 30
0
 70
   128
 71
     2
 72
     4
 73
     8
 74
     6
  0
VERTEX
  8
0
 62
   151
 10
0
 20
0
 30
0
 70
   128
 71
     3
 72
     4
 73
     8
 74
     7
  0
VERTEX
  8
0
 62
   151
 10
0
 20
0
 30
0
 70
   128
 71
     3
 72
     1
 73
     5
 74
     7
  0
VERTEX
  8
0
 62
   151
 10
0
 20
0
 30
0
 70
   128
 71
     5
 72
     6
 73
     8
 74
     7
  0
SEQEND
  8
0
  0
POLYLINE
  8
0
 62
   151
 66
     1
 10
0
 20
0
 30
0
 70
    64
 71
     8
 72
     6
  0
VERTEX
  8
0
 10
-114.04400936899236
 20
74.62931419512195
 30
6.225533427531544
 70
   192
  0
VERTEX
  8
0
 10
-113.9878773664185
 20
74.75073332520212
 30
6.22440752451817
 70
   192
  0
VERTEX
  8
0
 10
-113.9341642741426
 20
74.578528523571649
 30
6.225065435763942
 70
   192
  0
VERTEX
  8
0
 10
-113.87803227156874
 20
74.699947653651819
 30
6.223939532750568
 70
   192
  0
VERTEX
  8
0
 10
-114.04482853540848
 20
74.628614288301918
 30
6.109214768599485
 70
   192
  0
VERTEX
  8
0
 10
-113.98869653283462
 20
74.750033418382088
 30
6.108088865586111
 70
   192
  0
VERTEX
  8
0
 10
-113.93498344055872
 20
74.577828616751617
 30
6.108746776831883
 70
   192
  0
VERTEX
  8
0
 10
-113.87885143798486
 20
74.699247746831787
 30
6.107620873818509
 70
   192
  0
VERTEX
  8
0
 62
   151
 10
0
 20
0
 30
0
 70
   128
 71
     1
 72
     2
 73
     4
 74
     3
  0
VERTEX
  8
0
 62
   151
 10
0
 20
0
 30
0
 70
   128
 71
     1
 72
     2
 73
     6
 74
     5
  0
VERTEX
  8
0
 62
   151
 10
0
 20
0
 30
0
 70
   128
 71
     2
 72
     4
 73
     8
 74
     6
  0
VERTEX
  8
0
 62
   151
 10
0
 20
0
 30
0
 70
   128
 71
     3
 72
     4
 73
     8
 74
     7
  0
VERTEX
  8
0
 62
   151
 10
0
 20
0
 30
0
 70
   128
 71
     3
 72
     1
 73
     5
 74
     7
  0
VERTEX
  8
0
 62
   151
 10
0
 20
0
 30
0
 70
   128
 71
     5
 72
     6
 73
     8
 74
     7
  0
SEQEND
  8
0
  0
POLYLINE
  8
0
 62
   151
 66
     1
 10
0
 20
0
 30
0
 70
    64
 71
     8
 72
     6
  0
VERTEX
  8
0
 10
-114.03113748750229
 20
75.062000567511575
 30
6.264404537035866
 70
   192
  0
VERTEX
  8
0
 10
-113.72577381889931
 20
75.722532693567018
 30
6.258279512827031
 70
   192
  0
VERTEX
  8
0
 10
-113.63122560499065
 20
74.877105706779957
 30
6.262700724325451
 70
   192
  0
VERTEX
  8
0
 10
-113.32586193638767
 20
75.537637832835401
 30
6.256575700116616
 70
   192
  0
VERTEX
  8
0
 10
-114.03301199181745
 20
75.060398965775306
 30
5.998231725492977
 70
   192
  0
VERTEX
  8
0
 10
-113.72764832321447
 20
75.720931091830749
 30
5.992106701284142
 70
   192
  0
VERTEX
  8
0
 10
-113.6331001093058
 20
74.875504105043689
 30
5.996527912782561
 70
   192
  0
VERTEX
  8
0
 10
-113.32773644070282
 20
75.536036231099132
 30
5.990402888573726
 70
   192
  0
VERTEX
  8
0
 62
   151
 10
0
 20
0
 30
0
 70
   128
 71
     1
 72
     2
 73
     4
 74
     3
  0
VERTEX
  8
0
 62
   151
 10
0
 20
0
 30
0
 70
   128
 71
     1
 72
     2
 73
     6
 74
     5
  0
VERTEX
  8
0
 62
   151
 10
0
 20
0
 30
0
 70
   128
 71
     2
 72
     4
 73
     8
 74
     6
  0
VERTEX
  8
0
 62
   151
 10
0
 20
0
 30
0
 70
   128
 71
     3
 72
     4
 73
     8
 74
     7
  0
VERTEX
  8
0
 62
   151
 10
0
 20
0
 30
0
 70
   128
 71
     3
 72
     1
 73
     5
 74
     7
  0
VERTEX
  8
0
 62
   151
 10
0
 20
0
 30
0
 70
   128
 71
     5
 72
     6
 73
     8
 74
     7
  0
SEQEND
  8
0
  0
ENDSEC
  0
EOF
